<svg width="280" height="95" viewBox="0 0 280 95" fill="none" xmlns="http://www.w3.org/2000/svg">
<g filter="url(#filter0_b_218_1228)">
<rect width="279.898" height="94.9672" rx="20" fill="white" fill-opacity="0.8"/>
</g>
<path d="M93.88 37.9836V37.5216C93.88 36.583 94.0193 35.7543 94.298 35.0356C94.5767 34.317 94.9433 33.6863 95.398 33.1436C95.8673 32.5863 96.3733 32.095 96.916 31.6696C97.4733 31.2296 98.0233 30.8263 98.566 30.4596C99.1233 30.0783 99.6293 29.7043 100.084 29.3376C100.553 28.971 100.927 28.5896 101.206 28.1936C101.485 27.783 101.624 27.3283 101.624 26.8296C101.624 26.3896 101.529 26.0083 101.338 25.6856C101.147 25.363 100.883 25.121 100.546 24.9596C100.223 24.7836 99.8347 24.6956 99.38 24.6956C98.9107 24.6956 98.4927 24.7983 98.126 25.0036C97.774 25.1943 97.51 25.4876 97.334 25.8836C97.158 26.265 97.092 26.7343 97.136 27.2916H93.924C93.8947 26.2063 94.1073 25.2603 94.562 24.4536C95.0313 23.647 95.6913 23.0236 96.542 22.5836C97.4073 22.1436 98.4193 21.9236 99.578 21.9236C100.663 21.9236 101.609 22.1143 102.416 22.4956C103.223 22.877 103.846 23.427 104.286 24.1456C104.741 24.8496 104.968 25.693 104.968 26.6756C104.968 27.3503 104.858 27.9516 104.638 28.4796C104.433 29.0076 104.154 29.4916 103.802 29.9316C103.45 30.3716 103.054 30.775 102.614 31.1416C102.174 31.4936 101.719 31.831 101.25 32.1536C100.795 32.4763 100.348 32.799 99.908 33.1216C99.4827 33.4296 99.1013 33.7523 98.764 34.0896C98.4267 34.4123 98.17 34.7643 97.994 35.1456H105.122V37.9836H93.88ZM113.322 38.1816C112.149 38.1816 111.137 37.9763 110.286 37.5656C109.436 37.1403 108.768 36.5536 108.284 35.8056C107.815 35.043 107.566 34.163 107.536 33.1656H110.814C110.829 33.6056 110.939 33.9943 111.144 34.3316C111.364 34.6543 111.658 34.911 112.024 35.1016C112.406 35.2776 112.846 35.3656 113.345 35.3656C114.166 35.3656 114.804 35.1236 115.259 34.6396C115.728 34.141 115.962 33.503 115.962 32.7256C115.962 32.183 115.852 31.7063 115.633 31.2956C115.427 30.885 115.127 30.5696 114.73 30.3496C114.334 30.115 113.865 29.9976 113.322 29.9976C112.692 29.9976 112.171 30.1443 111.76 30.4376C111.364 30.7163 111.086 31.0756 110.924 31.5156H107.844L108.262 22.1216H118.294V24.9376H111.122L110.968 28.2596L111.1 28.3036C111.408 27.9956 111.826 27.7536 112.354 27.5776C112.882 27.4016 113.44 27.3136 114.026 27.3136C114.833 27.3136 115.552 27.4456 116.183 27.7096C116.828 27.959 117.378 28.3256 117.833 28.8096C118.287 29.279 118.632 29.8436 118.867 30.5036C119.116 31.149 119.241 31.8603 119.241 32.6376C119.241 33.7376 118.999 34.7056 118.514 35.5416C118.045 36.3776 117.363 37.0303 116.468 37.4996C115.588 37.9543 114.54 38.1816 113.322 38.1816ZM127.402 38.1376C126.464 38.1376 125.62 37.9543 124.872 37.5876C124.139 37.2063 123.508 36.6636 122.98 35.9596C122.467 35.241 122.071 34.383 121.792 33.3856C121.528 32.3883 121.396 31.259 121.396 29.9976C121.396 28.6923 121.536 27.541 121.814 26.5436C122.108 25.5463 122.518 24.703 123.046 24.0136C123.589 23.3243 124.234 22.8036 124.982 22.4516C125.73 22.0996 126.559 21.9236 127.468 21.9236C128.407 21.9236 129.243 22.1143 129.976 22.4956C130.71 22.8623 131.333 23.3976 131.846 24.1016C132.374 24.8056 132.771 25.6563 133.035 26.6536C133.299 27.651 133.431 28.7803 133.431 30.0416C133.431 31.3323 133.284 32.4836 132.99 33.4956C132.712 34.5076 132.301 35.3583 131.758 36.0476C131.23 36.737 130.6 37.2576 129.866 37.6096C129.133 37.9616 128.312 38.1376 127.402 38.1376ZM127.424 35.4096C127.835 35.4096 128.209 35.329 128.546 35.1676C128.884 34.9916 129.177 34.6983 129.426 34.2876C129.676 33.877 129.866 33.327 129.998 32.6376C130.145 31.9336 130.218 31.061 130.218 30.0196C130.218 28.9783 130.145 28.113 129.998 27.4236C129.866 26.7196 129.676 26.1696 129.426 25.7736C129.177 25.363 128.884 25.077 128.546 24.9156C128.209 24.7396 127.835 24.6516 127.424 24.6516C127.014 24.6516 126.632 24.7396 126.28 24.9156C125.943 25.077 125.65 25.363 125.4 25.7736C125.151 26.1696 124.96 26.7123 124.828 27.4016C124.696 28.091 124.63 28.9636 124.63 30.0196C124.63 31.061 124.696 31.9336 124.828 32.6376C124.96 33.327 125.151 33.877 125.4 34.2876C125.65 34.6983 125.943 34.9916 126.28 35.1676C126.632 35.329 127.014 35.4096 127.424 35.4096ZM135.946 37.9836V21.9456H139.224V31.0756L140.192 29.9536L143.69 26.1916H147.672L143.14 30.8556L147.76 37.9836H143.954L141.556 34.2436L140.852 33.0116L139.224 34.6176V37.9836H135.946Z" fill="#181818"/>
<path d="M93.072 70.9836L97.878 57.8616H100.02L104.826 70.9836H103.224L102.036 67.7436H95.862L94.692 70.9836H93.072ZM96.258 66.5196H101.64L100.02 62.1276L99.012 59.3016H98.922L97.896 62.1276L96.258 66.5196ZM109.547 71.1636C108.287 71.1636 107.315 70.8756 106.631 70.2996C105.959 69.7236 105.623 68.9676 105.623 68.0316H107.081C107.081 68.7396 107.315 69.2616 107.783 69.5976C108.251 69.9216 108.851 70.0836 109.583 70.0836C110.339 70.0836 110.915 69.9456 111.311 69.6696C111.707 69.3936 111.905 69.0036 111.905 68.4996C111.905 68.1036 111.821 67.7976 111.653 67.5816C111.485 67.3656 111.221 67.2036 110.861 67.0956C110.501 66.9756 110.033 66.8736 109.457 66.7896C108.917 66.7056 108.425 66.6096 107.981 66.5016C107.549 66.3816 107.177 66.2256 106.865 66.0336C106.553 65.8296 106.313 65.5716 106.145 65.2596C105.977 64.9476 105.893 64.5636 105.893 64.1076C105.893 63.5316 106.043 63.0396 106.343 62.6316C106.655 62.2236 107.081 61.9116 107.621 61.6956C108.173 61.4676 108.815 61.3536 109.547 61.3536C110.315 61.3536 110.969 61.4736 111.509 61.7136C112.049 61.9536 112.463 62.2956 112.751 62.7396C113.039 63.1716 113.189 63.6936 113.201 64.3056H111.779C111.767 63.8616 111.665 63.5076 111.473 63.2436C111.293 62.9676 111.035 62.7636 110.699 62.6316C110.375 62.4996 109.985 62.4336 109.529 62.4336C108.833 62.4336 108.293 62.5776 107.909 62.8656C107.537 63.1416 107.351 63.5076 107.351 63.9636C107.351 64.2996 107.441 64.5756 107.621 64.7916C107.801 65.0076 108.077 65.1756 108.449 65.2956C108.821 65.4036 109.289 65.4996 109.853 65.5836C110.357 65.6556 110.819 65.7456 111.239 65.8536C111.659 65.9616 112.031 66.1116 112.355 66.3036C112.679 66.4956 112.931 66.7596 113.111 67.0956C113.303 67.4316 113.399 67.8576 113.399 68.3736C113.399 69.2976 113.051 69.9936 112.355 70.4616C111.659 70.9296 110.723 71.1636 109.547 71.1636ZM119.057 71.1636C117.797 71.1636 116.825 70.8756 116.141 70.2996C115.469 69.7236 115.133 68.9676 115.133 68.0316H116.591C116.591 68.7396 116.825 69.2616 117.293 69.5976C117.761 69.9216 118.361 70.0836 119.093 70.0836C119.849 70.0836 120.425 69.9456 120.821 69.6696C121.217 69.3936 121.415 69.0036 121.415 68.4996C121.415 68.1036 121.331 67.7976 121.163 67.5816C120.995 67.3656 120.731 67.2036 120.371 67.0956C120.011 66.9756 119.543 66.8736 118.967 66.7896C118.427 66.7056 117.935 66.6096 117.491 66.5016C117.059 66.3816 116.687 66.2256 116.375 66.0336C116.063 65.8296 115.823 65.5716 115.655 65.2596C115.487 64.9476 115.403 64.5636 115.403 64.1076C115.403 63.5316 115.553 63.0396 115.853 62.6316C116.165 62.2236 116.591 61.9116 117.131 61.6956C117.683 61.4676 118.325 61.3536 119.057 61.3536C119.825 61.3536 120.479 61.4736 121.019 61.7136C121.559 61.9536 121.973 62.2956 122.261 62.7396C122.549 63.1716 122.699 63.6936 122.711 64.3056H121.289C121.277 63.8616 121.175 63.5076 120.983 63.2436C120.803 62.9676 120.545 62.7636 120.209 62.6316C119.885 62.4996 119.495 62.4336 119.039 62.4336C118.343 62.4336 117.803 62.5776 117.419 62.8656C117.047 63.1416 116.861 63.5076 116.861 63.9636C116.861 64.2996 116.951 64.5756 117.131 64.7916C117.311 65.0076 117.587 65.1756 117.959 65.2956C118.331 65.4036 118.799 65.4996 119.363 65.5836C119.867 65.6556 120.329 65.7456 120.749 65.8536C121.169 65.9616 121.541 66.1116 121.865 66.3036C122.189 66.4956 122.441 66.7596 122.621 67.0956C122.813 67.4316 122.909 67.8576 122.909 68.3736C122.909 69.2976 122.561 69.9936 121.865 70.4616C121.169 70.9296 120.233 71.1636 119.057 71.1636ZM125.165 70.9836V61.5336H126.623V70.9836H125.165ZM125.165 59.9676V57.8616H126.623V59.9676H125.165ZM132.75 71.1636C131.49 71.1636 130.518 70.8756 129.834 70.2996C129.162 69.7236 128.826 68.9676 128.826 68.0316H130.284C130.284 68.7396 130.518 69.2616 130.986 69.5976C131.454 69.9216 132.054 70.0836 132.786 70.0836C133.542 70.0836 134.118 69.9456 134.514 69.6696C134.91 69.3936 135.108 69.0036 135.108 68.4996C135.108 68.1036 135.024 67.7976 134.856 67.5816C134.688 67.3656 134.424 67.2036 134.064 67.0956C133.704 66.9756 133.236 66.8736 132.66 66.7896C132.12 66.7056 131.628 66.6096 131.184 66.5016C130.752 66.3816 130.38 66.2256 130.068 66.0336C129.756 65.8296 129.516 65.5716 129.348 65.2596C129.18 64.9476 129.096 64.5636 129.096 64.1076C129.096 63.5316 129.246 63.0396 129.546 62.6316C129.858 62.2236 130.284 61.9116 130.824 61.6956C131.376 61.4676 132.018 61.3536 132.75 61.3536C133.518 61.3536 134.172 61.4736 134.712 61.7136C135.252 61.9536 135.666 62.2956 135.954 62.7396C136.242 63.1716 136.392 63.6936 136.404 64.3056H134.982C134.97 63.8616 134.868 63.5076 134.676 63.2436C134.496 62.9676 134.238 62.7636 133.902 62.6316C133.578 62.4996 133.188 62.4336 132.732 62.4336C132.036 62.4336 131.496 62.5776 131.112 62.8656C130.74 63.1416 130.554 63.5076 130.554 63.9636C130.554 64.2996 130.644 64.5756 130.824 64.7916C131.004 65.0076 131.28 65.1756 131.652 65.2956C132.024 65.4036 132.492 65.4996 133.056 65.5836C133.56 65.6556 134.022 65.7456 134.442 65.8536C134.862 65.9616 135.234 66.1116 135.558 66.3036C135.882 66.4956 136.134 66.7596 136.314 67.0956C136.506 67.4316 136.602 67.8576 136.602 68.3736C136.602 69.2976 136.254 69.9936 135.558 70.4616C134.862 70.9296 133.926 71.1636 132.75 71.1636ZM141.36 70.9836C140.892 70.9836 140.52 70.9176 140.244 70.7856C139.98 70.6536 139.788 70.4556 139.668 70.1916C139.56 69.9156 139.506 69.5796 139.506 69.1836V62.7396H137.67V61.5336H139.506V58.7076L140.964 58.5096V61.5336H143.16V62.7396H140.964V68.9316C140.964 69.2676 141.024 69.4896 141.144 69.5976C141.264 69.7056 141.486 69.7596 141.81 69.7596H143.16V70.9836H141.36ZM148.634 71.1456C147.71 71.1456 146.912 70.9476 146.24 70.5516C145.568 70.1436 145.046 69.5736 144.674 68.8416C144.314 68.1096 144.134 67.2576 144.134 66.2856C144.134 65.3016 144.314 64.4436 144.674 63.7116C145.034 62.9676 145.544 62.3976 146.204 62.0016C146.876 61.5936 147.662 61.3896 148.562 61.3896C149.582 61.3896 150.416 61.6176 151.064 62.0736C151.724 62.5176 152.198 63.1296 152.486 63.9096C152.786 64.6776 152.888 65.5476 152.792 66.5196H145.574C145.598 67.2396 145.736 67.8576 145.988 68.3736C146.24 68.8776 146.588 69.2676 147.032 69.5436C147.488 69.8076 148.022 69.9396 148.634 69.9396C149.342 69.9396 149.936 69.7776 150.416 69.4536C150.908 69.1176 151.22 68.6736 151.352 68.1216H152.756C152.672 68.7216 152.438 69.2496 152.054 69.7056C151.682 70.1616 151.196 70.5156 150.596 70.7676C150.008 71.0196 149.354 71.1456 148.634 71.1456ZM145.592 65.6556L145.448 65.3856H151.532L151.37 65.6916C151.394 64.9596 151.28 64.3656 151.028 63.9096C150.788 63.4416 150.452 63.1056 150.02 62.9016C149.588 62.6856 149.096 62.5776 148.544 62.5776C147.968 62.5776 147.458 62.7036 147.014 62.9556C146.582 63.1956 146.246 63.5496 146.006 64.0176C145.766 64.4736 145.628 65.0196 145.592 65.6556ZM158.305 71.1456C157.729 71.1456 157.201 71.0376 156.721 70.8216C156.253 70.5936 155.845 70.2756 155.497 69.8676C155.149 69.4476 154.879 68.9376 154.687 68.3376C154.507 67.7256 154.417 67.0296 154.417 66.2496C154.417 65.2176 154.579 64.3356 154.903 63.6036C155.239 62.8716 155.695 62.3196 156.271 61.9476C156.859 61.5636 157.537 61.3716 158.305 61.3716C158.857 61.3716 159.355 61.4616 159.799 61.6416C160.255 61.8096 160.639 62.0556 160.951 62.3796C161.263 62.6916 161.497 63.0636 161.653 63.4956H161.743V57.8616H163.201L163.183 70.9836H161.797L161.743 69.0036H161.653C161.413 69.6396 161.005 70.1556 160.429 70.5516C159.853 70.9476 159.145 71.1456 158.305 71.1456ZM158.791 69.9216C159.427 69.9216 159.961 69.7716 160.393 69.4716C160.825 69.1716 161.155 68.7876 161.383 68.3196C161.611 67.8516 161.725 67.3536 161.725 66.8256V65.6736C161.725 65.2776 161.659 64.8996 161.527 64.5396C161.395 64.1676 161.209 63.8376 160.969 63.5496C160.729 63.2496 160.423 63.0156 160.051 62.8476C159.691 62.6676 159.271 62.5776 158.791 62.5776C158.215 62.5776 157.711 62.7216 157.279 63.0096C156.847 63.2856 156.511 63.6936 156.271 64.2336C156.031 64.7736 155.911 65.4456 155.911 66.2496C155.911 67.0416 156.031 67.7136 156.271 68.2656C156.511 68.8056 156.847 69.2196 157.279 69.5076C157.711 69.7836 158.215 69.9216 158.791 69.9216ZM174.614 71.1456C173.462 71.1456 172.508 70.9656 171.752 70.6056C171.008 70.2456 170.45 69.7476 170.078 69.1116C169.718 68.4636 169.526 67.7256 169.502 66.8976H171.104C171.116 67.5096 171.248 68.0436 171.5 68.4996C171.764 68.9556 172.148 69.3036 172.652 69.5436C173.168 69.7836 173.828 69.9036 174.632 69.9036C175.652 69.9036 176.468 69.7176 177.08 69.3456C177.704 68.9616 178.016 68.3796 178.016 67.5996C178.016 67.1676 177.95 66.8076 177.818 66.5196C177.686 66.2196 177.476 65.9736 177.188 65.7816C176.9 65.5896 176.522 65.4276 176.054 65.2956C175.586 65.1516 175.022 65.0256 174.362 64.9176C173.606 64.7736 172.946 64.6116 172.382 64.4316C171.818 64.2516 171.344 64.0296 170.96 63.7656C170.588 63.4896 170.306 63.1536 170.114 62.7576C169.922 62.3616 169.826 61.8876 169.826 61.3356C169.826 60.6036 170.012 59.9676 170.384 59.4276C170.756 58.8756 171.29 58.4556 171.986 58.1676C172.682 57.8676 173.522 57.7176 174.506 57.7176C175.502 57.7176 176.342 57.8796 177.026 58.2036C177.71 58.5156 178.238 58.9536 178.61 59.5176C178.982 60.0816 179.174 60.7476 179.186 61.5156H177.62C177.596 60.9396 177.452 60.4596 177.188 60.0756C176.924 59.6916 176.558 59.4036 176.09 59.2116C175.622 59.0196 175.07 58.9236 174.434 58.9236C173.786 58.9236 173.24 59.0196 172.796 59.2116C172.352 59.3916 172.01 59.6436 171.77 59.9676C171.53 60.2916 171.41 60.6756 171.41 61.1196C171.41 61.6476 171.53 62.0616 171.77 62.3616C172.022 62.6496 172.418 62.8776 172.958 63.0456C173.51 63.2136 174.224 63.3756 175.1 63.5316C175.7 63.6276 176.27 63.7536 176.81 63.9096C177.35 64.0656 177.83 64.2816 178.25 64.5576C178.67 64.8336 179 65.2056 179.24 65.6736C179.492 66.1296 179.618 66.7236 179.618 67.4556C179.618 68.1876 179.426 68.8296 179.042 69.3816C178.658 69.9336 178.094 70.3656 177.35 70.6776C176.606 70.9896 175.694 71.1456 174.614 71.1456ZM184.339 70.9836C183.871 70.9836 183.499 70.9176 183.223 70.7856C182.959 70.6536 182.767 70.4556 182.647 70.1916C182.539 69.9156 182.485 69.5796 182.485 69.1836V62.7396H180.649V61.5336H182.485V58.7076L183.943 58.5096V61.5336H186.139V62.7396H183.943V68.9316C183.943 69.2676 184.003 69.4896 184.123 69.5976C184.243 69.7056 184.465 69.7596 184.789 69.7596H186.139V70.9836H184.339ZM191.389 71.1456C190.693 71.1456 190.087 71.0076 189.571 70.7316C189.055 70.4436 188.659 70.0176 188.383 69.4536C188.107 68.8776 187.969 68.1696 187.969 67.3296V61.5336H189.427V66.9696C189.427 67.5936 189.511 68.1276 189.679 68.5716C189.847 69.0036 190.111 69.3336 190.471 69.5616C190.843 69.7896 191.317 69.9036 191.893 69.9036C192.457 69.9036 192.955 69.7656 193.387 69.4896C193.819 69.2136 194.155 68.8236 194.395 68.3196C194.635 67.8156 194.755 67.2336 194.755 66.5736V61.5336H196.213V70.9836H194.827L194.755 68.9676H194.665C194.413 69.6396 193.993 70.1736 193.405 70.5696C192.817 70.9536 192.145 71.1456 191.389 71.1456ZM202.022 71.1456C201.446 71.1456 200.918 71.0376 200.438 70.8216C199.97 70.5936 199.562 70.2756 199.214 69.8676C198.866 69.4476 198.596 68.9376 198.404 68.3376C198.224 67.7256 198.134 67.0296 198.134 66.2496C198.134 65.2176 198.296 64.3356 198.62 63.6036C198.956 62.8716 199.412 62.3196 199.988 61.9476C200.576 61.5636 201.254 61.3716 202.022 61.3716C202.574 61.3716 203.072 61.4616 203.516 61.6416C203.972 61.8096 204.356 62.0556 204.668 62.3796C204.98 62.6916 205.214 63.0636 205.37 63.4956H205.46V57.8616H206.918L206.9 70.9836H205.514L205.46 69.0036H205.37C205.13 69.6396 204.722 70.1556 204.146 70.5516C203.57 70.9476 202.862 71.1456 202.022 71.1456ZM202.508 69.9216C203.144 69.9216 203.678 69.7716 204.11 69.4716C204.542 69.1716 204.872 68.7876 205.1 68.3196C205.328 67.8516 205.442 67.3536 205.442 66.8256V65.6736C205.442 65.2776 205.376 64.8996 205.244 64.5396C205.112 64.1676 204.926 63.8376 204.686 63.5496C204.446 63.2496 204.14 63.0156 203.768 62.8476C203.408 62.6676 202.988 62.5776 202.508 62.5776C201.932 62.5776 201.428 62.7216 200.996 63.0096C200.564 63.2856 200.228 63.6936 199.988 64.2336C199.748 64.7736 199.628 65.4456 199.628 66.2496C199.628 67.0416 199.748 67.7136 199.988 68.2656C200.228 68.8056 200.564 69.2196 200.996 69.5076C201.428 69.7836 201.932 69.9216 202.508 69.9216ZM213.479 71.1456C212.555 71.1456 211.757 70.9476 211.085 70.5516C210.413 70.1436 209.891 69.5736 209.519 68.8416C209.159 68.1096 208.979 67.2576 208.979 66.2856C208.979 65.3016 209.159 64.4436 209.519 63.7116C209.879 62.9676 210.389 62.3976 211.049 62.0016C211.721 61.5936 212.507 61.3896 213.407 61.3896C214.427 61.3896 215.261 61.6176 215.909 62.0736C216.569 62.5176 217.043 63.1296 217.331 63.9096C217.631 64.6776 217.733 65.5476 217.637 66.5196H210.419C210.443 67.2396 210.581 67.8576 210.833 68.3736C211.085 68.8776 211.433 69.2676 211.877 69.5436C212.333 69.8076 212.867 69.9396 213.479 69.9396C214.187 69.9396 214.781 69.7776 215.261 69.4536C215.753 69.1176 216.065 68.6736 216.197 68.1216H217.601C217.517 68.7216 217.283 69.2496 216.899 69.7056C216.527 70.1616 216.041 70.5156 215.441 70.7676C214.853 71.0196 214.199 71.1456 213.479 71.1456ZM210.437 65.6556L210.293 65.3856H216.377L216.215 65.6916C216.239 64.9596 216.125 64.3656 215.873 63.9096C215.633 63.4416 215.297 63.1056 214.865 62.9016C214.433 62.6856 213.941 62.5776 213.389 62.5776C212.813 62.5776 212.303 62.7036 211.859 62.9556C211.427 63.1956 211.091 63.5496 210.851 64.0176C210.611 64.4736 210.473 65.0196 210.437 65.6556ZM219.753 70.9836V61.5336H221.139L221.193 63.4956H221.301C221.589 62.7996 222.033 62.2776 222.633 61.9296C223.233 61.5696 223.887 61.3896 224.595 61.3896C225.087 61.3896 225.537 61.4616 225.945 61.6056C226.365 61.7496 226.725 61.9836 227.025 62.3076C227.337 62.6316 227.577 63.0516 227.745 63.5676C227.913 64.0716 227.997 64.6896 227.997 65.4216V70.9836H226.539V65.7096C226.539 65.0016 226.449 64.4196 226.269 63.9636C226.101 63.5076 225.837 63.1716 225.477 62.9556C225.129 62.7276 224.679 62.6136 224.127 62.6136C223.539 62.6136 223.023 62.7576 222.579 63.0456C222.135 63.3336 221.793 63.7236 221.553 64.2156C221.313 64.6956 221.193 65.2476 221.193 65.8716V70.9836H219.753ZM232.925 70.9836C232.457 70.9836 232.085 70.9176 231.809 70.7856C231.545 70.6536 231.353 70.4556 231.233 70.1916C231.125 69.9156 231.071 69.5796 231.071 69.1836V62.7396H229.235V61.5336H231.071V58.7076L232.529 58.5096V61.5336H234.725V62.7396H232.529V68.9316C232.529 69.2676 232.589 69.4896 232.709 69.5976C232.829 69.7056 233.051 69.7596 233.375 69.7596H234.725V70.9836H232.925Z" fill="#414141"/>
<rect x="24" y="25.4836" width="44" height="44" rx="8" fill="#23BDEE"/>
<g clip-path="url(#clip0_218_1228)">
<path d="M39.9502 35.3837C39.4729 35.3837 39.0859 35.7706 39.0859 36.248V37.9765H40.8145V36.248C40.8145 35.7706 40.4275 35.3837 39.9502 35.3837Z" fill="white"/>
<path d="M52.0508 35.3837C51.5735 35.3837 51.1865 35.7706 51.1865 36.248V37.9765H52.9151V36.248C52.9151 35.7706 52.5282 35.3837 52.0508 35.3837Z" fill="white"/>
<path d="M55.5075 37.9766H52.9147V41.4337C52.9147 41.9111 52.5277 42.298 52.0504 42.298C51.573 42.298 51.1861 41.9111 51.1861 41.4337V37.9766H40.8147V41.4337C40.8147 41.9111 40.4277 42.298 39.9504 42.298C39.473 42.298 39.0861 41.9111 39.0861 41.4337V37.9766H36.4932C35.0613 37.9766 33.9004 39.1374 33.9004 40.5694V56.9909C33.9004 58.4229 35.0613 59.5837 36.4932 59.5837H55.5075C56.9395 59.5837 58.1004 58.4229 58.1004 56.9909V40.5694C58.1004 39.1374 56.9395 37.9766 55.5075 37.9766ZM56.3718 56.9909C56.3718 57.4682 55.9848 57.8552 55.5075 57.8552H36.4932C36.0159 57.8552 35.6289 57.4682 35.6289 56.9909V45.7551H56.3718V56.9909Z" fill="white"/>
<path d="M40.8155 47.4836H39.087C38.6096 47.4836 38.2227 47.8706 38.2227 48.348C38.2227 48.8253 38.6096 49.2123 39.087 49.2123H40.8155C41.2929 49.2123 41.6798 48.8253 41.6798 48.348C41.6798 47.8706 41.2929 47.4836 40.8155 47.4836Z" fill="white"/>
<path d="M46.8653 47.4836H45.1368C44.6594 47.4836 44.2725 47.8706 44.2725 48.348C44.2725 48.8253 44.6594 49.2123 45.1368 49.2123H46.8653C47.3427 49.2123 47.7296 48.8253 47.7296 48.348C47.7296 47.8706 47.3427 47.4836 46.8653 47.4836Z" fill="white"/>
<path d="M52.9151 47.4836H51.1866C50.7092 47.4836 50.3223 47.8706 50.3223 48.348C50.3223 48.8253 50.7092 49.2123 51.1866 49.2123H52.9151C53.3925 49.2123 53.7794 48.8253 53.7794 48.348C53.7794 47.8706 53.3924 47.4836 52.9151 47.4836Z" fill="white"/>
<path d="M40.8155 50.9408H39.087C38.6096 50.9408 38.2227 51.3277 38.2227 51.8051C38.2227 52.2824 38.6096 52.6694 39.087 52.6694H40.8155C41.2929 52.6694 41.6798 52.2824 41.6798 51.8051C41.6798 51.3277 41.2929 50.9408 40.8155 50.9408Z" fill="white"/>
<path d="M46.8653 50.9408H45.1368C44.6594 50.9408 44.2725 51.3277 44.2725 51.8051C44.2725 52.2824 44.6594 52.6694 45.1368 52.6694H46.8653C47.3427 52.6694 47.7296 52.2824 47.7296 51.8051C47.7296 51.3277 47.3427 50.9408 46.8653 50.9408Z" fill="white"/>
<path d="M52.9151 50.9408H51.1866C50.7092 50.9408 50.3223 51.3277 50.3223 51.8051C50.3223 52.2824 50.7092 52.6694 51.1866 52.6694H52.9151C53.3925 52.6694 53.7794 52.2824 53.7794 51.8051C53.7794 51.3277 53.3924 50.9408 52.9151 50.9408Z" fill="white"/>
<path d="M40.8155 54.3979H39.087C38.6096 54.3979 38.2227 54.7849 38.2227 55.2622C38.2227 55.7396 38.6096 56.1265 39.087 56.1265H40.8155C41.2929 56.1265 41.6798 55.7395 41.6798 55.2622C41.6798 54.7849 41.2929 54.3979 40.8155 54.3979Z" fill="white"/>
<path d="M46.8653 54.3979H45.1368C44.6594 54.3979 44.2725 54.7849 44.2725 55.2622C44.2725 55.7396 44.6594 56.1266 45.1368 56.1266H46.8653C47.3427 56.1266 47.7296 55.7396 47.7296 55.2622C47.7296 54.7849 47.3427 54.3979 46.8653 54.3979Z" fill="white"/>
<path d="M52.9151 54.3979H51.1866C50.7092 54.3979 50.3223 54.7849 50.3223 55.2622C50.3223 55.7396 50.7092 56.1266 51.1866 56.1266H52.9151C53.3925 56.1266 53.7794 55.7396 53.7794 55.2622C53.7794 54.7849 53.3924 54.3979 52.9151 54.3979Z" fill="white"/>
</g>
<defs>
<filter id="filter0_b_218_1228" x="-20" y="-20" width="319.898" height="134.967" filterUnits="userSpaceOnUse" color-interpolation-filters="sRGB">
<feFlood flood-opacity="0" result="BackgroundImageFix"/>
<feGaussianBlur in="BackgroundImageFix" stdDeviation="10"/>
<feComposite in2="SourceAlpha" operator="in" result="effect1_backgroundBlur_218_1228"/>
<feBlend mode="normal" in="SourceGraphic" in2="effect1_backgroundBlur_218_1228" result="shape"/>
</filter>
<clipPath id="clip0_218_1228">
<rect width="24.2" height="24.2" fill="white" transform="translate(33.9004 35.3837)"/>
</clipPath>
</defs>
</svg>
