<svg width="38" height="39" viewBox="0 0 38 39" fill="none" xmlns="http://www.w3.org/2000/svg">
<g id="Briefcase">
<path id="Vector" d="M32.0625 11.1875H5.9375C5.28166 11.1875 4.75 11.7192 4.75 12.375V31.375C4.75 32.0308 5.28166 32.5625 5.9375 32.5625H32.0625C32.7183 32.5625 33.25 32.0308 33.25 31.375V12.375C33.25 11.7192 32.7183 11.1875 32.0625 11.1875Z" stroke="#6D737A" stroke-width="1.5" stroke-linecap="round" stroke-linejoin="round"/>
<path id="Vector_2" d="M24.9375 11.1875V8.8125C24.9375 8.18261 24.6873 7.57852 24.2419 7.13312C23.7965 6.68772 23.1924 6.4375 22.5625 6.4375H15.4375C14.8076 6.4375 14.2035 6.68772 13.7581 7.13312C13.3127 7.57852 13.0625 8.18261 13.0625 8.8125V11.1875" stroke="#6D737A" stroke-width="1.5" stroke-linecap="round" stroke-linejoin="round"/>
<path id="Vector_3" d="M33.25 19.2476C28.919 21.7523 24.0031 23.0684 19 23.0624C13.9959 23.0754 9.07825 21.7589 4.75 19.2476" stroke="#6D737A" stroke-width="1.5" stroke-linecap="round" stroke-linejoin="round"/>
<path id="Vector_4" d="M17.2188 18.3125H20.7812" stroke="#6D737A" stroke-width="1.5" stroke-linecap="round" stroke-linejoin="round"/>
</g>
</svg>
