<svg width="38" height="39" viewBox="0 0 38 39" fill="none" xmlns="http://www.w3.org/2000/svg">
<g id="Camera">
<path id="Vector" d="M30.875 31.375H7.125C6.49511 31.375 5.89102 31.1248 5.44562 30.6794C5.00022 30.234 4.75 29.6299 4.75 29V12.375C4.75 11.7451 5.00022 11.141 5.44562 10.6956C5.89102 10.2502 6.49511 10 7.125 10H11.875L14.25 6.4375H23.75L26.125 10H30.875C31.5049 10 32.109 10.2502 32.5544 10.6956C32.9998 11.141 33.25 11.7451 33.25 12.375V29C33.25 29.6299 32.9998 30.234 32.5544 30.6794C32.109 31.1248 31.5049 31.375 30.875 31.375Z" stroke="#6D737A" stroke-width="1.5" stroke-linecap="round" stroke-linejoin="round"/>
<path id="Vector_2" d="M19 25.4375C21.9513 25.4375 24.3438 23.045 24.3438 20.0938C24.3438 17.1425 21.9513 14.75 19 14.75C16.0487 14.75 13.6562 17.1425 13.6562 20.0938C13.6562 23.045 16.0487 25.4375 19 25.4375Z" stroke="#6D737A" stroke-width="1.5" stroke-linecap="round" stroke-linejoin="round"/>
</g>
</svg>
