<svg width="350" height="94" viewBox="0 0 350 94" fill="none" xmlns="http://www.w3.org/2000/svg">
<g filter="url(#filter0_b_218_1205)">
<rect width="349.513" height="93.1623" rx="20" fill="white" fill-opacity="0.8"/>
</g>
<path d="M101.822 37.2792C100.619 37.2792 99.5267 37.0958 98.544 36.7292C97.5613 36.3625 96.7107 35.8272 95.992 35.1232C95.2733 34.4192 94.7233 33.5612 94.342 32.5492C93.9607 31.5225 93.77 30.3565 93.77 29.0512C93.77 27.7605 93.9607 26.6092 94.342 25.5972C94.7233 24.5705 95.2733 23.7052 95.992 23.0012C96.7107 22.2972 97.5613 21.7618 98.544 21.3952C99.5267 21.0285 100.619 20.8452 101.822 20.8452C103.201 20.8452 104.425 21.0872 105.496 21.5712C106.567 22.0405 107.432 22.7005 108.092 23.5512C108.752 24.4018 109.155 25.4065 109.302 26.5652H105.826C105.694 26.0078 105.445 25.5238 105.078 25.1132C104.711 24.6878 104.249 24.3578 103.692 24.1232C103.149 23.8885 102.526 23.7712 101.822 23.7712C100.898 23.7712 100.099 23.9692 99.424 24.3652C98.7493 24.7465 98.2287 25.3332 97.862 26.1252C97.4953 26.9025 97.312 27.8778 97.312 29.0512C97.312 29.9458 97.4147 30.7232 97.62 31.3832C97.84 32.0432 98.1407 32.5932 98.522 33.0332C98.918 33.4732 99.3947 33.8032 99.952 34.0232C100.509 34.2432 101.133 34.3532 101.822 34.3532C102.511 34.3532 103.135 34.2358 103.692 34.0012C104.249 33.7665 104.711 33.4365 105.078 33.0112C105.459 32.5858 105.709 32.0945 105.826 31.5372H109.302C109.17 32.6958 108.767 33.7078 108.092 34.5732C107.417 35.4238 106.545 36.0912 105.474 36.5752C104.403 37.0445 103.186 37.2792 101.822 37.2792ZM117.206 37.2792C116.311 37.2792 115.505 37.1472 114.786 36.8832C114.067 36.6045 113.444 36.2012 112.916 35.6732C112.388 35.1452 111.985 34.5072 111.706 33.7592C111.427 32.9965 111.288 32.1385 111.288 31.1852C111.288 29.9678 111.523 28.9045 111.992 27.9952C112.461 27.0712 113.136 26.3525 114.016 25.8392C114.896 25.3258 115.959 25.0692 117.206 25.0692C118.086 25.0692 118.885 25.2085 119.604 25.4872C120.323 25.7658 120.939 26.1692 121.452 26.6972C121.98 27.2252 122.383 27.8632 122.662 28.6112C122.955 29.3592 123.102 30.2172 123.102 31.1852C123.102 32.3878 122.867 33.4512 122.398 34.3752C121.929 35.2845 121.254 35.9958 120.374 36.5092C119.509 37.0225 118.453 37.2792 117.206 37.2792ZM117.184 34.6612C117.712 34.6612 118.174 34.5365 118.57 34.2872C118.981 34.0232 119.289 33.6345 119.494 33.1212C119.714 32.6078 119.824 31.9625 119.824 31.1852C119.824 30.5985 119.765 30.0925 119.648 29.6672C119.531 29.2272 119.355 28.8605 119.12 28.5672C118.885 28.2738 118.607 28.0612 118.284 27.9292C117.961 27.7825 117.602 27.7092 117.206 27.7092C116.678 27.7092 116.209 27.8338 115.798 28.0832C115.402 28.3325 115.094 28.7138 114.874 29.2272C114.654 29.7405 114.544 30.3932 114.544 31.1852C114.544 31.7718 114.603 32.2852 114.72 32.7252C114.852 33.1505 115.035 33.5098 115.27 33.8032C115.505 34.0818 115.783 34.2945 116.106 34.4412C116.429 34.5878 116.788 34.6612 117.184 34.6612ZM125.602 37.0812V25.2892H128.704L128.836 27.4232H128.968C129.291 26.6312 129.789 26.0445 130.464 25.6632C131.139 25.2672 131.894 25.0692 132.73 25.0692C133.317 25.0692 133.859 25.1645 134.358 25.3552C134.871 25.5312 135.311 25.8098 135.678 26.1912C136.059 26.5725 136.353 27.0785 136.558 27.7092C136.778 28.3252 136.888 29.0732 136.888 29.9532V37.0812H133.654V30.6572C133.654 29.9972 133.573 29.4472 133.412 29.0072C133.265 28.5672 133.031 28.2445 132.708 28.0392C132.385 27.8192 131.96 27.7092 131.432 27.7092C130.875 27.7092 130.405 27.8412 130.024 28.1052C129.643 28.3692 129.349 28.7138 129.144 29.1392C128.939 29.5645 128.836 30.0265 128.836 30.5252V37.0812H125.602ZM144.935 40.9752C143.894 40.9752 142.999 40.8212 142.251 40.5132C141.503 40.2198 140.917 39.8018 140.491 39.2592C140.066 38.7312 139.824 38.1078 139.765 37.3892H142.867C142.926 37.6385 143.043 37.8585 143.219 38.0492C143.41 38.2545 143.652 38.4085 143.945 38.5112C144.253 38.6285 144.605 38.6872 145.001 38.6872C145.632 38.6872 146.138 38.5918 146.519 38.4012C146.915 38.2252 147.201 37.9612 147.377 37.6092C147.568 37.2572 147.663 36.8098 147.663 36.2672V34.2432H147.487C147.238 34.8738 146.791 35.3872 146.145 35.7832C145.515 36.1792 144.774 36.3772 143.923 36.3772C143.219 36.3772 142.581 36.2598 142.009 36.0252C141.452 35.7758 140.968 35.4165 140.557 34.9472C140.147 34.4632 139.831 33.8692 139.611 33.1652C139.391 32.4612 139.281 31.6472 139.281 30.7232C139.281 29.4765 139.472 28.4352 139.853 27.5992C140.249 26.7632 140.792 26.1325 141.481 25.7072C142.185 25.2818 143.007 25.0692 143.945 25.0692C144.796 25.0692 145.537 25.2672 146.167 25.6632C146.798 26.0445 147.238 26.5505 147.487 27.1812H147.663L147.751 25.2892H150.897V35.6732C150.897 36.6558 150.751 37.4845 150.457 38.1592C150.179 38.8338 149.775 39.3765 149.247 39.7872C148.719 40.2125 148.089 40.5132 147.355 40.6892C146.637 40.8798 145.83 40.9752 144.935 40.9752ZM145.111 33.8912C145.669 33.8912 146.131 33.7738 146.497 33.5392C146.864 33.3045 147.143 32.9965 147.333 32.6152C147.524 32.2192 147.634 31.8158 147.663 31.4052L147.641 29.9972C147.627 29.5865 147.524 29.1978 147.333 28.8312C147.143 28.4498 146.864 28.1418 146.497 27.9072C146.131 27.6725 145.676 27.5552 145.133 27.5552C144.62 27.5552 144.165 27.6725 143.769 27.9072C143.388 28.1272 143.095 28.4718 142.889 28.9412C142.684 29.4105 142.581 30.0045 142.581 30.7232C142.581 31.4418 142.684 32.0358 142.889 32.5052C143.109 32.9745 143.41 33.3265 143.791 33.5612C144.173 33.7812 144.613 33.8912 145.111 33.8912ZM153.982 37.0812V25.2892H156.908L157.04 27.1812H157.15C157.414 26.4185 157.832 25.8905 158.404 25.5972C158.991 25.2892 159.658 25.1352 160.406 25.1352C160.538 25.1352 160.655 25.1352 160.758 25.1352C160.861 25.1352 160.963 25.1352 161.066 25.1352V28.1712C160.993 28.1712 160.89 28.1712 160.758 28.1712C160.626 28.1712 160.487 28.1712 160.34 28.1712C159.621 28.1712 159.035 28.2812 158.58 28.5012C158.125 28.7065 157.788 29.0145 157.568 29.4252C157.348 29.8358 157.231 30.3345 157.216 30.9212V37.0812H153.982ZM166.977 37.2792C166.273 37.2792 165.627 37.1545 165.041 36.9052C164.469 36.6558 163.97 36.2745 163.545 35.7612C163.134 35.2478 162.819 34.6098 162.599 33.8472C162.379 33.0845 162.269 32.1972 162.269 31.1852C162.269 29.8212 162.459 28.6918 162.841 27.7972C163.237 26.8878 163.787 26.2058 164.491 25.7512C165.209 25.2965 166.038 25.0692 166.977 25.0692C167.593 25.0692 168.143 25.1645 168.627 25.3552C169.125 25.5458 169.551 25.8098 169.903 26.1472C170.269 26.4845 170.541 26.8805 170.717 27.3352H170.893L171.025 25.2892H174.127V37.0812H170.893V35.0132H170.717C170.453 35.7025 169.991 36.2525 169.331 36.6632C168.671 37.0738 167.886 37.2792 166.977 37.2792ZM168.209 34.6612C168.81 34.6612 169.301 34.5218 169.683 34.2432C170.079 33.9645 170.372 33.6052 170.563 33.1652C170.753 32.7105 170.849 32.2338 170.849 31.7352V30.6132C170.849 30.0998 170.753 29.6232 170.563 29.1832C170.372 28.7432 170.079 28.3838 169.683 28.1052C169.301 27.8265 168.81 27.6872 168.209 27.6872C167.681 27.6872 167.219 27.8118 166.823 28.0612C166.427 28.3105 166.119 28.6918 165.899 29.2052C165.679 29.7185 165.569 30.3785 165.569 31.1852C165.569 31.9625 165.679 32.6152 165.899 33.1432C166.119 33.6565 166.427 34.0378 166.823 34.2872C167.219 34.5365 167.681 34.6612 168.209 34.6612ZM181.229 37.0812C180.437 37.0812 179.821 36.9638 179.381 36.7292C178.941 36.4945 178.633 36.1645 178.457 35.7392C178.295 35.2992 178.215 34.7858 178.215 34.1992V27.8852H176.103V25.2892H178.215V22.0772L181.427 21.7692V25.2892H183.803V27.8852H181.427V33.5832C181.427 33.9352 181.507 34.1698 181.669 34.2872C181.83 34.4045 182.065 34.4632 182.373 34.4632H183.803V37.0812H181.229ZM190.331 37.2792C189.422 37.2792 188.652 37.1032 188.021 36.7512C187.391 36.3992 186.914 35.8785 186.591 35.1892C186.283 34.4852 186.129 33.6345 186.129 32.6372V25.2892H189.363V31.7792C189.363 32.3952 189.437 32.9158 189.583 33.3412C189.745 33.7665 189.987 34.0965 190.309 34.3312C190.647 34.5512 191.079 34.6612 191.607 34.6612C192.15 34.6612 192.612 34.5292 192.993 34.2652C193.375 34.0012 193.668 33.6565 193.873 33.2312C194.079 32.7912 194.181 32.3145 194.181 31.8012V25.2892H197.415V37.0812H194.313L194.181 34.9252H194.027C193.749 35.6878 193.272 36.2745 192.597 36.6852C191.937 37.0812 191.182 37.2792 190.331 37.2792ZM200.515 37.0812V21.0432H203.749V37.0812H200.515ZM210.975 37.2792C210.271 37.2792 209.626 37.1545 209.039 36.9052C208.467 36.6558 207.968 36.2745 207.543 35.7612C207.132 35.2478 206.817 34.6098 206.597 33.8472C206.377 33.0845 206.267 32.1972 206.267 31.1852C206.267 29.8212 206.458 28.6918 206.839 27.7972C207.235 26.8878 207.785 26.2058 208.489 25.7512C209.208 25.2965 210.036 25.0692 210.975 25.0692C211.591 25.0692 212.141 25.1645 212.625 25.3552C213.124 25.5458 213.549 25.8098 213.901 26.1472C214.268 26.4845 214.539 26.8805 214.715 27.3352H214.891L215.023 25.2892H218.125V37.0812H214.891V35.0132H214.715C214.451 35.7025 213.989 36.2525 213.329 36.6632C212.669 37.0738 211.884 37.2792 210.975 37.2792ZM212.207 34.6612C212.808 34.6612 213.3 34.5218 213.681 34.2432C214.077 33.9645 214.37 33.6052 214.561 33.1652C214.752 32.7105 214.847 32.2338 214.847 31.7352V30.6132C214.847 30.0998 214.752 29.6232 214.561 29.1832C214.37 28.7432 214.077 28.3838 213.681 28.1052C213.3 27.8265 212.808 27.6872 212.207 27.6872C211.679 27.6872 211.217 27.8118 210.821 28.0612C210.425 28.3105 210.117 28.6918 209.897 29.2052C209.677 29.7185 209.567 30.3785 209.567 31.1852C209.567 31.9625 209.677 32.6152 209.897 33.1432C210.117 33.6565 210.425 34.0378 210.821 34.2872C211.217 34.5365 211.679 34.6612 212.207 34.6612ZM225.227 37.0812C224.435 37.0812 223.819 36.9638 223.379 36.7292C222.939 36.4945 222.631 36.1645 222.455 35.7392C222.294 35.2992 222.213 34.7858 222.213 34.1992V27.8852H220.101V25.2892H222.213V22.0772L225.425 21.7692V25.2892H227.801V27.8852H225.425V33.5832C225.425 33.9352 225.506 34.1698 225.667 34.2872C225.828 34.4045 226.063 34.4632 226.371 34.4632H227.801V37.0812H225.227ZM230.238 37.0812V25.2892H233.472V37.0812H230.238ZM230.238 23.7712V21.0432H233.472V23.7712H230.238ZM241.907 37.2792C241.013 37.2792 240.206 37.1472 239.487 36.8832C238.769 36.6045 238.145 36.2012 237.617 35.6732C237.089 35.1452 236.686 34.5072 236.407 33.7592C236.129 32.9965 235.989 32.1385 235.989 31.1852C235.989 29.9678 236.224 28.9045 236.693 27.9952C237.163 27.0712 237.837 26.3525 238.717 25.8392C239.597 25.3258 240.661 25.0692 241.907 25.0692C242.787 25.0692 243.587 25.2085 244.305 25.4872C245.024 25.7658 245.64 26.1692 246.153 26.6972C246.681 27.2252 247.085 27.8632 247.363 28.6112C247.657 29.3592 247.803 30.2172 247.803 31.1852C247.803 32.3878 247.569 33.4512 247.099 34.3752C246.63 35.2845 245.955 35.9958 245.075 36.5092C244.21 37.0225 243.154 37.2792 241.907 37.2792ZM241.885 34.6612C242.413 34.6612 242.875 34.5365 243.271 34.2872C243.682 34.0232 243.99 33.6345 244.195 33.1212C244.415 32.6078 244.525 31.9625 244.525 31.1852C244.525 30.5985 244.467 30.0925 244.349 29.6672C244.232 29.2272 244.056 28.8605 243.821 28.5672C243.587 28.2738 243.308 28.0612 242.985 27.9292C242.663 27.7825 242.303 27.7092 241.907 27.7092C241.379 27.7092 240.91 27.8338 240.499 28.0832C240.103 28.3325 239.795 28.7138 239.575 29.2272C239.355 29.7405 239.245 30.3932 239.245 31.1852C239.245 31.7718 239.304 32.2852 239.421 32.7252C239.553 33.1505 239.737 33.5098 239.971 33.8032C240.206 34.0818 240.485 34.2945 240.807 34.4412C241.13 34.5878 241.489 34.6612 241.885 34.6612ZM250.303 37.0812V25.2892H253.405L253.537 27.4232H253.669C253.992 26.6312 254.491 26.0445 255.165 25.6632C255.84 25.2672 256.595 25.0692 257.431 25.0692C258.018 25.0692 258.561 25.1645 259.059 25.3552C259.573 25.5312 260.013 25.8098 260.379 26.1912C260.761 26.5725 261.054 27.0785 261.259 27.7092C261.479 28.3252 261.589 29.0732 261.589 29.9532V37.0812H258.355V30.6572C258.355 29.9972 258.275 29.4472 258.113 29.0072C257.967 28.5672 257.732 28.2445 257.409 28.0392C257.087 27.8192 256.661 27.7092 256.133 27.7092C255.576 27.7092 255.107 27.8412 254.725 28.1052C254.344 28.3692 254.051 28.7138 253.845 29.1392C253.64 29.5645 253.537 30.0265 253.537 30.5252V37.0812H250.303ZM269.417 37.3012C267.701 37.3012 266.373 36.9418 265.435 36.2232C264.511 35.4898 264.056 34.5365 264.071 33.3632H267.239C267.253 33.9938 267.473 34.4485 267.899 34.7272C268.324 34.9912 268.859 35.1232 269.505 35.1232C270.165 35.1232 270.663 35.0058 271.001 34.7712C271.338 34.5365 271.507 34.2285 271.507 33.8472C271.507 33.4952 271.419 33.2312 271.243 33.0552C271.067 32.8645 270.803 32.7252 270.451 32.6372C270.099 32.5345 269.644 32.4465 269.087 32.3732C268.427 32.2852 267.811 32.1752 267.239 32.0432C266.681 31.8965 266.183 31.6985 265.743 31.4492C265.317 31.1852 264.98 30.8405 264.731 30.4152C264.496 29.9898 264.379 29.4545 264.379 28.8092C264.379 27.9732 264.591 27.2838 265.017 26.7412C265.457 26.1838 266.058 25.7658 266.821 25.4872C267.598 25.2085 268.5 25.0692 269.527 25.0692C270.539 25.0692 271.411 25.2158 272.145 25.5092C272.893 25.8025 273.472 26.2278 273.883 26.7852C274.293 27.3278 274.506 27.9952 274.521 28.7872H271.353C271.353 28.4498 271.272 28.1712 271.111 27.9512C270.949 27.7165 270.722 27.5405 270.429 27.4232C270.15 27.3058 269.82 27.2472 269.439 27.2472C268.837 27.2472 268.383 27.3645 268.075 27.5992C267.767 27.8192 267.613 28.1125 267.613 28.4792C267.613 28.7725 267.701 29.0072 267.877 29.1832C268.053 29.3592 268.324 29.4985 268.691 29.6012C269.057 29.6892 269.527 29.7698 270.099 29.8432C270.7 29.9165 271.279 30.0192 271.837 30.1512C272.409 30.2832 272.915 30.4812 273.355 30.7452C273.795 30.9945 274.139 31.3465 274.389 31.8012C274.638 32.2412 274.763 32.8205 274.763 33.5392C274.763 34.8445 274.286 35.7978 273.333 36.3992C272.394 37.0005 271.089 37.3012 269.417 37.3012Z" fill="#181818"/>
<path d="M97.932 70.0812V64.8432L93.072 56.9592H94.818L98.652 63.3492H98.742L102.612 56.9592H104.34L99.462 64.8432V70.0812H97.932ZM107.766 70.2432C107.082 70.2432 106.458 70.1292 105.894 69.9012C105.342 69.6732 104.862 69.3432 104.454 68.9112C104.058 68.4792 103.746 67.9692 103.518 67.3812C103.302 66.7812 103.194 66.1152 103.194 65.3832C103.194 64.4112 103.38 63.5592 103.752 62.8272C104.124 62.0952 104.652 61.5252 105.336 61.1172C106.032 60.6972 106.842 60.4872 107.766 60.4872C108.45 60.4872 109.068 60.6012 109.62 60.8292C110.184 61.0452 110.664 61.3692 111.06 61.8012C111.456 62.2332 111.762 62.7492 111.978 63.3492C112.194 63.9492 112.302 64.6212 112.302 65.3652C112.302 66.3252 112.116 67.1712 111.744 67.9032C111.384 68.6352 110.862 69.2112 110.178 69.6312C109.494 70.0392 108.69 70.2432 107.766 70.2432ZM107.766 68.9832C108.378 68.9832 108.912 68.8452 109.368 68.5692C109.824 68.2812 110.178 67.8672 110.43 67.3272C110.694 66.7752 110.826 66.1212 110.826 65.3652C110.826 64.8012 110.754 64.2972 110.61 63.8532C110.466 63.3972 110.262 63.0132 109.998 62.7012C109.734 62.3772 109.416 62.1312 109.044 61.9632C108.672 61.7952 108.246 61.7112 107.766 61.7112C107.154 61.7112 106.614 61.8612 106.146 62.1612C105.69 62.4492 105.33 62.8632 105.066 63.4032C104.814 63.9432 104.688 64.6032 104.688 65.3832C104.688 65.9352 104.754 66.4392 104.886 66.8952C105.03 67.3392 105.234 67.7172 105.498 68.0292C105.774 68.3412 106.104 68.5812 106.488 68.7492C106.872 68.9052 107.298 68.9832 107.766 68.9832ZM117.702 70.2432C117.006 70.2432 116.4 70.1052 115.884 69.8292C115.368 69.5412 114.972 69.1152 114.696 68.5512C114.42 67.9752 114.282 67.2672 114.282 66.4272V60.6312H115.74V66.0672C115.74 66.6912 115.824 67.2252 115.992 67.6692C116.16 68.1012 116.424 68.4312 116.784 68.6592C117.156 68.8872 117.63 69.0012 118.206 69.0012C118.77 69.0012 119.268 68.8632 119.7 68.5872C120.132 68.3112 120.468 67.9212 120.708 67.4172C120.948 66.9132 121.068 66.3312 121.068 65.6712V60.6312H122.526V70.0812H121.14L121.068 68.0652H120.978C120.726 68.7372 120.306 69.2712 119.718 69.6672C119.13 70.0512 118.458 70.2432 117.702 70.2432ZM125.165 70.0812V60.6312H126.461L126.551 62.3772H126.623C126.827 61.7772 127.187 61.3152 127.703 60.9912C128.219 60.6672 128.795 60.5052 129.431 60.5052C129.539 60.5052 129.641 60.5112 129.737 60.5232C129.833 60.5232 129.923 60.5292 130.007 60.5412V61.9272C129.923 61.9152 129.833 61.9092 129.737 61.9092C129.641 61.8972 129.539 61.8912 129.431 61.8912C128.879 61.8912 128.399 61.9932 127.991 62.1972C127.583 62.4012 127.259 62.6952 127.019 63.0792C126.791 63.4512 126.653 63.9072 126.605 64.4472V70.0812H125.165ZM139.057 70.2432C138.481 70.2432 137.953 70.1352 137.473 69.9192C137.005 69.6912 136.597 69.3732 136.249 68.9652C135.901 68.5452 135.631 68.0352 135.439 67.4352C135.259 66.8232 135.169 66.1272 135.169 65.3472C135.169 64.3152 135.331 63.4332 135.655 62.7012C135.991 61.9692 136.447 61.4172 137.023 61.0452C137.611 60.6612 138.289 60.4692 139.057 60.4692C139.609 60.4692 140.107 60.5592 140.551 60.7392C141.007 60.9072 141.391 61.1532 141.703 61.4772C142.015 61.7892 142.249 62.1612 142.405 62.5932H142.495L142.549 60.6312H143.953V70.0812H142.495V68.1012H142.405C142.165 68.7372 141.757 69.2532 141.181 69.6492C140.605 70.0452 139.897 70.2432 139.057 70.2432ZM139.543 69.0192C140.179 69.0192 140.713 68.8692 141.145 68.5692C141.577 68.2692 141.907 67.8852 142.135 67.4172C142.363 66.9492 142.477 66.4512 142.477 65.9232V64.7712C142.477 64.2432 142.363 63.7452 142.135 63.2772C141.907 62.7972 141.577 62.4132 141.145 62.1252C140.713 61.8252 140.179 61.6752 139.543 61.6752C138.967 61.6752 138.463 61.8192 138.031 62.1072C137.599 62.3832 137.263 62.7912 137.023 63.3312C136.783 63.8712 136.663 64.5432 136.663 65.3472C136.663 66.1392 136.783 66.8112 137.023 67.3632C137.263 67.9032 137.599 68.3172 138.031 68.6052C138.463 68.8812 138.967 69.0192 139.543 69.0192ZM149.85 70.2432C149.274 70.2432 148.746 70.1352 148.266 69.9192C147.798 69.6912 147.39 69.3732 147.042 68.9652C146.694 68.5452 146.424 68.0352 146.232 67.4352C146.052 66.8232 145.962 66.1272 145.962 65.3472C145.962 64.3152 146.124 63.4332 146.448 62.7012C146.784 61.9692 147.24 61.4172 147.816 61.0452C148.404 60.6612 149.082 60.4692 149.85 60.4692C150.402 60.4692 150.9 60.5592 151.344 60.7392C151.8 60.9072 152.184 61.1532 152.496 61.4772C152.808 61.7892 153.042 62.1612 153.198 62.5932H153.288V56.9592H154.746L154.728 70.0812H153.342L153.288 68.1012H153.198C152.958 68.7372 152.55 69.2532 151.974 69.6492C151.398 70.0452 150.69 70.2432 149.85 70.2432ZM150.336 69.0192C150.972 69.0192 151.506 68.8692 151.938 68.5692C152.37 68.2692 152.7 67.8852 152.928 67.4172C153.156 66.9492 153.27 66.4512 153.27 65.9232V64.7712C153.27 64.3752 153.204 63.9972 153.072 63.6372C152.94 63.2652 152.754 62.9352 152.514 62.6472C152.274 62.3472 151.968 62.1132 151.596 61.9452C151.236 61.7652 150.816 61.6752 150.336 61.6752C149.76 61.6752 149.256 61.8192 148.824 62.1072C148.392 62.3832 148.056 62.7912 147.816 63.3312C147.576 63.8712 147.456 64.5432 147.456 65.3472C147.456 66.1392 147.576 66.8112 147.816 67.3632C148.056 67.9032 148.392 68.3172 148.824 68.6052C149.256 68.8812 149.76 69.0192 150.336 69.0192ZM157.473 70.0812V60.6312H158.859L158.913 62.5932H159.021C159.297 61.8972 159.729 61.3752 160.317 61.0272C160.905 60.6672 161.553 60.4872 162.261 60.4872C162.981 60.4872 163.617 60.6612 164.169 61.0092C164.721 61.3572 165.117 61.9392 165.357 62.7552H165.501C165.777 61.9992 166.221 61.4352 166.833 61.0632C167.457 60.6792 168.153 60.4872 168.921 60.4872C169.557 60.4872 170.121 60.6192 170.613 60.8832C171.117 61.1472 171.513 61.5792 171.801 62.1792C172.089 62.7672 172.233 63.5472 172.233 64.5192V70.0812H170.793V64.8072C170.793 64.0992 170.703 63.5172 170.523 63.0612C170.355 62.6052 170.097 62.2692 169.749 62.0532C169.413 61.8252 168.969 61.7112 168.417 61.7112C167.853 61.7112 167.355 61.8552 166.923 62.1432C166.503 62.4312 166.173 62.8212 165.933 63.3132C165.705 63.7932 165.591 64.3452 165.591 64.9692V70.0812H164.115V64.8072C164.115 64.0992 164.031 63.5172 163.863 63.0612C163.695 62.6052 163.437 62.2692 163.089 62.0532C162.753 61.8252 162.315 61.7112 161.775 61.7112C161.199 61.7112 160.695 61.8552 160.263 62.1432C159.843 62.4312 159.513 62.8212 159.273 63.3132C159.033 63.7932 158.913 64.3452 158.913 64.9692V70.0812H157.473ZM174.876 70.0812V60.6312H176.334V70.0812H174.876ZM174.876 59.0652V56.9592H176.334V59.0652H174.876ZM182.461 70.2612C181.201 70.2612 180.229 69.9732 179.545 69.3972C178.873 68.8212 178.537 68.0652 178.537 67.1292H179.995C179.995 67.8372 180.229 68.3592 180.697 68.6952C181.165 69.0192 181.765 69.1812 182.497 69.1812C183.253 69.1812 183.829 69.0432 184.225 68.7672C184.621 68.4912 184.819 68.1012 184.819 67.5972C184.819 67.2012 184.735 66.8952 184.567 66.6792C184.399 66.4632 184.135 66.3012 183.775 66.1932C183.415 66.0732 182.947 65.9712 182.371 65.8872C181.831 65.8032 181.339 65.7072 180.895 65.5992C180.463 65.4792 180.091 65.3232 179.779 65.1312C179.467 64.9272 179.227 64.6692 179.059 64.3572C178.891 64.0452 178.807 63.6612 178.807 63.2052C178.807 62.6292 178.957 62.1372 179.257 61.7292C179.569 61.3212 179.995 61.0092 180.535 60.7932C181.087 60.5652 181.729 60.4512 182.461 60.4512C183.229 60.4512 183.883 60.5712 184.423 60.8112C184.963 61.0512 185.377 61.3932 185.665 61.8372C185.953 62.2692 186.103 62.7912 186.115 63.4032H184.693C184.681 62.9592 184.579 62.6052 184.387 62.3412C184.207 62.0652 183.949 61.8612 183.613 61.7292C183.289 61.5972 182.899 61.5312 182.443 61.5312C181.747 61.5312 181.207 61.6752 180.823 61.9632C180.451 62.2392 180.265 62.6052 180.265 63.0612C180.265 63.3972 180.355 63.6732 180.535 63.8892C180.715 64.1052 180.991 64.2732 181.363 64.3932C181.735 64.5012 182.203 64.5972 182.767 64.6812C183.271 64.7532 183.733 64.8432 184.153 64.9512C184.573 65.0592 184.945 65.2092 185.269 65.4012C185.593 65.5932 185.845 65.8572 186.025 66.1932C186.217 66.5292 186.313 66.9552 186.313 67.4712C186.313 68.3952 185.965 69.0912 185.269 69.5592C184.573 70.0272 183.637 70.2612 182.461 70.2612ZM191.971 70.2612C190.711 70.2612 189.739 69.9732 189.055 69.3972C188.383 68.8212 188.047 68.0652 188.047 67.1292H189.505C189.505 67.8372 189.739 68.3592 190.207 68.6952C190.675 69.0192 191.275 69.1812 192.007 69.1812C192.763 69.1812 193.339 69.0432 193.735 68.7672C194.131 68.4912 194.329 68.1012 194.329 67.5972C194.329 67.2012 194.245 66.8952 194.077 66.6792C193.909 66.4632 193.645 66.3012 193.285 66.1932C192.925 66.0732 192.457 65.9712 191.881 65.8872C191.341 65.8032 190.849 65.7072 190.405 65.5992C189.973 65.4792 189.601 65.3232 189.289 65.1312C188.977 64.9272 188.737 64.6692 188.569 64.3572C188.401 64.0452 188.317 63.6612 188.317 63.2052C188.317 62.6292 188.467 62.1372 188.767 61.7292C189.079 61.3212 189.505 61.0092 190.045 60.7932C190.597 60.5652 191.239 60.4512 191.971 60.4512C192.739 60.4512 193.393 60.5712 193.933 60.8112C194.473 61.0512 194.887 61.3932 195.175 61.8372C195.463 62.2692 195.613 62.7912 195.625 63.4032H194.203C194.191 62.9592 194.089 62.6052 193.897 62.3412C193.717 62.0652 193.459 61.8612 193.123 61.7292C192.799 61.5972 192.409 61.5312 191.953 61.5312C191.257 61.5312 190.717 61.6752 190.333 61.9632C189.961 62.2392 189.775 62.6052 189.775 63.0612C189.775 63.3972 189.865 63.6732 190.045 63.8892C190.225 64.1052 190.501 64.2732 190.873 64.3932C191.245 64.5012 191.713 64.5972 192.277 64.6812C192.781 64.7532 193.243 64.8432 193.663 64.9512C194.083 65.0592 194.455 65.2092 194.779 65.4012C195.103 65.5932 195.355 65.8572 195.535 66.1932C195.727 66.5292 195.823 66.9552 195.823 67.4712C195.823 68.3952 195.475 69.0912 194.779 69.5592C194.083 70.0272 193.147 70.2612 191.971 70.2612ZM198.079 70.0812V60.6312H199.537V70.0812H198.079ZM198.079 59.0652V56.9592H199.537V59.0652H198.079ZM206.186 70.2432C205.502 70.2432 204.878 70.1292 204.314 69.9012C203.762 69.6732 203.282 69.3432 202.874 68.9112C202.478 68.4792 202.166 67.9692 201.938 67.3812C201.722 66.7812 201.614 66.1152 201.614 65.3832C201.614 64.4112 201.8 63.5592 202.172 62.8272C202.544 62.0952 203.072 61.5252 203.756 61.1172C204.452 60.6972 205.262 60.4872 206.186 60.4872C206.87 60.4872 207.488 60.6012 208.04 60.8292C208.604 61.0452 209.084 61.3692 209.48 61.8012C209.876 62.2332 210.182 62.7492 210.398 63.3492C210.614 63.9492 210.722 64.6212 210.722 65.3652C210.722 66.3252 210.536 67.1712 210.164 67.9032C209.804 68.6352 209.282 69.2112 208.598 69.6312C207.914 70.0392 207.11 70.2432 206.186 70.2432ZM206.186 68.9832C206.798 68.9832 207.332 68.8452 207.788 68.5692C208.244 68.2812 208.598 67.8672 208.85 67.3272C209.114 66.7752 209.246 66.1212 209.246 65.3652C209.246 64.8012 209.174 64.2972 209.03 63.8532C208.886 63.3972 208.682 63.0132 208.418 62.7012C208.154 62.3772 207.836 62.1312 207.464 61.9632C207.092 61.7952 206.666 61.7112 206.186 61.7112C205.574 61.7112 205.034 61.8612 204.566 62.1612C204.11 62.4492 203.75 62.8632 203.486 63.4032C203.234 63.9432 203.108 64.6032 203.108 65.3832C203.108 65.9352 203.174 66.4392 203.306 66.8952C203.45 67.3392 203.654 67.7172 203.918 68.0292C204.194 68.3412 204.524 68.5812 204.908 68.7492C205.292 68.9052 205.718 68.9832 206.186 68.9832ZM212.792 70.0812V60.6312H214.178L214.232 62.5932H214.34C214.628 61.8972 215.072 61.3752 215.672 61.0272C216.272 60.6672 216.926 60.4872 217.634 60.4872C218.126 60.4872 218.576 60.5592 218.984 60.7032C219.404 60.8472 219.764 61.0812 220.064 61.4052C220.376 61.7292 220.616 62.1492 220.784 62.6652C220.952 63.1692 221.036 63.7872 221.036 64.5192V70.0812H219.578V64.8072C219.578 64.0992 219.488 63.5172 219.308 63.0612C219.14 62.6052 218.876 62.2692 218.516 62.0532C218.168 61.8252 217.718 61.7112 217.166 61.7112C216.578 61.7112 216.062 61.8552 215.618 62.1432C215.174 62.4312 214.832 62.8212 214.592 63.3132C214.352 63.7932 214.232 64.3452 214.232 64.9692V70.0812H212.792ZM231.674 70.2432C230.99 70.2432 230.366 70.1292 229.802 69.9012C229.25 69.6612 228.776 69.3312 228.38 68.9112C227.984 68.4792 227.678 67.9692 227.462 67.3812C227.246 66.7812 227.138 66.1092 227.138 65.3652C227.138 64.3932 227.324 63.5412 227.696 62.8092C228.08 62.0772 228.614 61.5072 229.298 61.0992C229.994 60.6912 230.804 60.4872 231.728 60.4872C232.472 60.4872 233.138 60.6252 233.726 60.9012C234.314 61.1772 234.788 61.5672 235.148 62.0712C235.508 62.5632 235.712 63.1392 235.76 63.7992H234.356C234.272 63.3432 234.104 62.9652 233.852 62.6652C233.6 62.3652 233.288 62.1372 232.916 61.9812C232.544 61.8132 232.136 61.7292 231.692 61.7292C231.044 61.7292 230.492 61.8852 230.036 62.1972C229.58 62.4972 229.226 62.9232 228.974 63.4752C228.734 64.0152 228.614 64.6512 228.614 65.3832C228.614 66.1392 228.74 66.7872 228.992 67.3272C229.256 67.8672 229.616 68.2812 230.072 68.5692C230.528 68.8572 231.062 69.0012 231.674 69.0012C232.178 69.0012 232.622 68.9112 233.006 68.7312C233.402 68.5392 233.714 68.2752 233.942 67.9392C234.182 67.6032 234.332 67.2132 234.392 66.7692H235.814C235.754 67.4652 235.538 68.0772 235.166 68.6052C234.806 69.1212 234.326 69.5232 233.726 69.8112C233.126 70.0992 232.442 70.2432 231.674 70.2432ZM241.729 70.2432C241.045 70.2432 240.421 70.1292 239.857 69.9012C239.305 69.6732 238.825 69.3432 238.417 68.9112C238.021 68.4792 237.709 67.9692 237.481 67.3812C237.265 66.7812 237.157 66.1152 237.157 65.3832C237.157 64.4112 237.343 63.5592 237.715 62.8272C238.087 62.0952 238.615 61.5252 239.299 61.1172C239.995 60.6972 240.805 60.4872 241.729 60.4872C242.413 60.4872 243.031 60.6012 243.583 60.8292C244.147 61.0452 244.627 61.3692 245.023 61.8012C245.419 62.2332 245.725 62.7492 245.941 63.3492C246.157 63.9492 246.265 64.6212 246.265 65.3652C246.265 66.3252 246.079 67.1712 245.707 67.9032C245.347 68.6352 244.825 69.2112 244.141 69.6312C243.457 70.0392 242.653 70.2432 241.729 70.2432ZM241.729 68.9832C242.341 68.9832 242.875 68.8452 243.331 68.5692C243.787 68.2812 244.141 67.8672 244.393 67.3272C244.657 66.7752 244.789 66.1212 244.789 65.3652C244.789 64.8012 244.717 64.2972 244.573 63.8532C244.429 63.3972 244.225 63.0132 243.961 62.7012C243.697 62.3772 243.379 62.1312 243.007 61.9632C242.635 61.7952 242.209 61.7112 241.729 61.7112C241.117 61.7112 240.577 61.8612 240.109 62.1612C239.653 62.4492 239.293 62.8632 239.029 63.4032C238.777 63.9432 238.651 64.6032 238.651 65.3832C238.651 65.9352 238.717 66.4392 238.849 66.8952C238.993 67.3392 239.197 67.7172 239.461 68.0292C239.737 68.3412 240.067 68.5812 240.451 68.7492C240.835 68.9052 241.261 68.9832 241.729 68.9832ZM248.335 70.0812V60.6312H249.721L249.775 62.5932H249.883C250.159 61.8972 250.591 61.3752 251.179 61.0272C251.767 60.6672 252.415 60.4872 253.123 60.4872C253.843 60.4872 254.479 60.6612 255.031 61.0092C255.583 61.3572 255.979 61.9392 256.219 62.7552H256.363C256.639 61.9992 257.083 61.4352 257.695 61.0632C258.319 60.6792 259.015 60.4872 259.783 60.4872C260.419 60.4872 260.983 60.6192 261.475 60.8832C261.979 61.1472 262.375 61.5792 262.663 62.1792C262.951 62.7672 263.095 63.5472 263.095 64.5192V70.0812H261.655V64.8072C261.655 64.0992 261.565 63.5172 261.385 63.0612C261.217 62.6052 260.959 62.2692 260.611 62.0532C260.275 61.8252 259.831 61.7112 259.279 61.7112C258.715 61.7112 258.217 61.8552 257.785 62.1432C257.365 62.4312 257.035 62.8212 256.795 63.3132C256.567 63.7932 256.453 64.3452 256.453 64.9692V70.0812H254.977V64.8072C254.977 64.0992 254.893 63.5172 254.725 63.0612C254.557 62.6052 254.299 62.2692 253.951 62.0532C253.615 61.8252 253.177 61.7112 252.637 61.7112C252.061 61.7112 251.557 61.8552 251.125 62.1432C250.705 62.4312 250.375 62.8212 250.135 63.3132C249.895 63.7932 249.775 64.3452 249.775 64.9692V70.0812H248.335ZM265.737 73.0872L265.755 60.6312H267.141L267.195 62.5932H267.303C267.531 61.9572 267.933 61.4472 268.509 61.0632C269.097 60.6672 269.805 60.4692 270.633 60.4692C271.209 60.4692 271.731 60.5772 272.199 60.7932C272.679 61.0092 273.093 61.3272 273.441 61.7472C273.789 62.1672 274.053 62.6832 274.233 63.2952C274.425 63.8952 274.521 64.5852 274.521 65.3652C274.521 66.3972 274.359 67.2792 274.035 68.0112C273.711 68.7312 273.255 69.2832 272.667 69.6672C272.091 70.0512 271.413 70.2432 270.633 70.2432C270.093 70.2432 269.595 70.1592 269.139 69.9912C268.695 69.8112 268.317 69.5592 268.005 69.2352C267.693 68.9112 267.459 68.5392 267.303 68.1192H267.195V73.0872H265.737ZM270.147 69.0192C270.723 69.0192 271.227 68.8812 271.659 68.6052C272.091 68.3292 272.427 67.9212 272.667 67.3812C272.919 66.8292 273.045 66.1572 273.045 65.3652C273.045 64.5612 272.919 63.8892 272.667 63.3492C272.427 62.8092 272.091 62.4012 271.659 62.1252C271.227 61.8372 270.723 61.6932 270.147 61.6932C269.523 61.6932 268.989 61.8432 268.545 62.1432C268.113 62.4312 267.783 62.8152 267.555 63.2952C267.327 63.7632 267.213 64.2612 267.213 64.7892V65.9232C267.213 66.3192 267.279 66.7032 267.411 67.0752C267.543 67.4472 267.729 67.7832 267.969 68.0832C268.221 68.3712 268.527 68.5992 268.887 68.7672C269.259 68.9352 269.679 69.0192 270.147 69.0192ZM276.6 70.0812V56.9592H278.058V70.0812H276.6ZM284.636 70.2432C283.712 70.2432 282.914 70.0452 282.242 69.6492C281.57 69.2412 281.048 68.6712 280.676 67.9392C280.316 67.2072 280.136 66.3552 280.136 65.3832C280.136 64.3992 280.316 63.5412 280.676 62.8092C281.036 62.0652 281.546 61.4952 282.206 61.0992C282.878 60.6912 283.664 60.4872 284.564 60.4872C285.584 60.4872 286.418 60.7152 287.066 61.1712C287.726 61.6152 288.2 62.2272 288.488 63.0072C288.788 63.7752 288.89 64.6452 288.794 65.6172H281.576C281.6 66.3372 281.738 66.9552 281.99 67.4712C282.242 67.9752 282.59 68.3652 283.034 68.6412C283.49 68.9052 284.024 69.0372 284.636 69.0372C285.344 69.0372 285.938 68.8752 286.418 68.5512C286.91 68.2152 287.222 67.7712 287.354 67.2192H288.758C288.674 67.8192 288.44 68.3472 288.056 68.8032C287.684 69.2592 287.198 69.6132 286.598 69.8652C286.01 70.1172 285.356 70.2432 284.636 70.2432ZM281.594 64.7532L281.45 64.4832H287.534L287.372 64.7892C287.396 64.0572 287.282 63.4632 287.03 63.0072C286.79 62.5392 286.454 62.2032 286.022 61.9992C285.59 61.7832 285.098 61.6752 284.546 61.6752C283.97 61.6752 283.46 61.8012 283.016 62.0532C282.584 62.2932 282.248 62.6472 282.008 63.1152C281.768 63.5712 281.63 64.1172 281.594 64.7532ZM293.411 70.0812C292.943 70.0812 292.571 70.0152 292.295 69.8832C292.031 69.7512 291.839 69.5532 291.719 69.2892C291.611 69.0132 291.557 68.6772 291.557 68.2812V61.8372H289.721V60.6312H291.557V57.8052L293.015 57.6072V60.6312H295.211V61.8372H293.015V68.0292C293.015 68.3652 293.075 68.5872 293.195 68.6952C293.315 68.8032 293.537 68.8572 293.861 68.8572H295.211V70.0812H293.411ZM300.684 70.2432C299.76 70.2432 298.962 70.0452 298.29 69.6492C297.618 69.2412 297.096 68.6712 296.724 67.9392C296.364 67.2072 296.184 66.3552 296.184 65.3832C296.184 64.3992 296.364 63.5412 296.724 62.8092C297.084 62.0652 297.594 61.4952 298.254 61.0992C298.926 60.6912 299.712 60.4872 300.612 60.4872C301.632 60.4872 302.466 60.7152 303.114 61.1712C303.774 61.6152 304.248 62.2272 304.536 63.0072C304.836 63.7752 304.938 64.6452 304.842 65.6172H297.624C297.648 66.3372 297.786 66.9552 298.038 67.4712C298.29 67.9752 298.638 68.3652 299.082 68.6412C299.538 68.9052 300.072 69.0372 300.684 69.0372C301.392 69.0372 301.986 68.8752 302.466 68.5512C302.958 68.2152 303.27 67.7712 303.402 67.2192H304.806C304.722 67.8192 304.488 68.3472 304.104 68.8032C303.732 69.2592 303.246 69.6132 302.646 69.8652C302.058 70.1172 301.404 70.2432 300.684 70.2432ZM297.642 64.7532L297.498 64.4832H303.582L303.42 64.7892C303.444 64.0572 303.33 63.4632 303.078 63.0072C302.838 62.5392 302.502 62.2032 302.07 61.9992C301.638 61.7832 301.146 61.6752 300.594 61.6752C300.018 61.6752 299.508 61.8012 299.064 62.0532C298.632 62.2932 298.296 62.6472 298.056 63.1152C297.816 63.5712 297.678 64.1172 297.642 64.7532ZM310.356 70.2432C309.78 70.2432 309.252 70.1352 308.772 69.9192C308.304 69.6912 307.896 69.3732 307.548 68.9652C307.2 68.5452 306.93 68.0352 306.738 67.4352C306.558 66.8232 306.468 66.1272 306.468 65.3472C306.468 64.3152 306.63 63.4332 306.954 62.7012C307.29 61.9692 307.746 61.4172 308.322 61.0452C308.91 60.6612 309.588 60.4692 310.356 60.4692C310.908 60.4692 311.406 60.5592 311.85 60.7392C312.306 60.9072 312.69 61.1532 313.002 61.4772C313.314 61.7892 313.548 62.1612 313.704 62.5932H313.794V56.9592H315.252L315.234 70.0812H313.848L313.794 68.1012H313.704C313.464 68.7372 313.056 69.2532 312.48 69.6492C311.904 70.0452 311.196 70.2432 310.356 70.2432ZM310.842 69.0192C311.478 69.0192 312.012 68.8692 312.444 68.5692C312.876 68.2692 313.206 67.8852 313.434 67.4172C313.662 66.9492 313.776 66.4512 313.776 65.9232V64.7712C313.776 64.3752 313.71 63.9972 313.578 63.6372C313.446 63.2652 313.26 62.9352 313.02 62.6472C312.78 62.3472 312.474 62.1132 312.102 61.9452C311.742 61.7652 311.322 61.6752 310.842 61.6752C310.266 61.6752 309.762 61.8192 309.33 62.1072C308.898 62.3832 308.562 62.7912 308.322 63.3312C308.082 63.8712 307.962 64.5432 307.962 65.3472C307.962 66.1392 308.082 66.8112 308.322 67.3632C308.562 67.9032 308.898 68.3172 309.33 68.6052C309.762 68.8812 310.266 69.0192 310.842 69.0192Z" fill="#414141"/>
<rect x="24" y="25.301" width="44" height="44" rx="8" fill="#F88C3D"/>
<path d="M58.0715 37.6582H33.9287L46.0001 47.9838L58.208 37.6871C58.1634 37.6736 58.1177 37.6639 58.0715 37.6582Z" fill="white"/>
<path d="M46.5859 49.9779C46.2438 50.2688 45.7515 50.2688 45.4094 49.9779L33 39.3611V55.9796C33 56.5122 33.4157 56.9439 33.9286 56.9439H58.0714C58.5843 56.9439 59 56.5122 59 55.9796V39.5038L46.5859 49.9779Z" fill="white"/>
<defs>
<filter id="filter0_b_218_1205" x="-20" y="-20" width="389.513" height="133.162" filterUnits="userSpaceOnUse" color-interpolation-filters="sRGB">
<feFlood flood-opacity="0" result="BackgroundImageFix"/>
<feGaussianBlur in="BackgroundImageFix" stdDeviation="10"/>
<feComposite in2="SourceAlpha" operator="in" result="effect1_backgroundBlur_218_1205"/>
<feBlend mode="normal" in="SourceGraphic" in2="effect1_backgroundBlur_218_1205" result="shape"/>
</filter>
</defs>
</svg>
