<svg width="38" height="39" viewBox="0 0 38 39" fill="none" xmlns="http://www.w3.org/2000/svg">
<g id="Database">
<path id="Vector" d="M19 19.5C26.2142 19.5 32.0625 16.31 32.0625 12.375C32.0625 8.43997 26.2142 5.25 19 5.25C11.7858 5.25 5.9375 8.43997 5.9375 12.375C5.9375 16.31 11.7858 19.5 19 19.5Z" stroke="#6D737A" stroke-width="1.5" stroke-linecap="round" stroke-linejoin="round"/>
<path id="Vector_2" d="M5.9375 12.375V19.5C5.9375 23.4336 11.7859 26.625 19 26.625C26.2141 26.625 32.0625 23.4336 32.0625 19.5V12.375" stroke="#6D737A" stroke-width="1.5" stroke-linecap="round" stroke-linejoin="round"/>
<path id="Vector_3" d="M5.9375 19.5V26.625C5.9375 30.5586 11.7859 33.75 19 33.75C26.2141 33.75 32.0625 30.5586 32.0625 26.625V19.5" stroke="#6D737A" stroke-width="1.5" stroke-linecap="round" stroke-linejoin="round"/>
</g>
</svg>
