<svg width="38" height="39" viewBox="0 0 38 39" fill="none" xmlns="http://www.w3.org/2000/svg">
<g id="Detective">
<path id="Vector" d="M11.2812 31.375C13.5767 31.375 15.4375 29.5142 15.4375 27.2188C15.4375 24.9233 13.5767 23.0625 11.2812 23.0625C8.98582 23.0625 7.125 24.9233 7.125 27.2188C7.125 29.5142 8.98582 31.375 11.2812 31.375Z" stroke="#6D737A" stroke-width="1.5" stroke-linecap="round" stroke-linejoin="round"/>
<path id="Vector_2" d="M26.7188 31.375C29.0142 31.375 30.875 29.5142 30.875 27.2188C30.875 24.9233 29.0142 23.0625 26.7188 23.0625C24.4233 23.0625 22.5625 24.9233 22.5625 27.2188C22.5625 29.5142 24.4233 31.375 26.7188 31.375Z" stroke="#6D737A" stroke-width="1.5" stroke-linecap="round" stroke-linejoin="round"/>
<path id="Vector_3" d="M15.4375 27.2188H22.5625" stroke="#6D737A" stroke-width="1.5" stroke-linecap="round" stroke-linejoin="round"/>
<path id="Vector_4" d="M1.1875 18.3125H36.8125" stroke="#6D737A" stroke-width="1.5" stroke-linecap="round" stroke-linejoin="round"/>
<path id="Vector_5" d="M5.9375 18.3126L13.2555 7.86256C13.3657 7.70418 13.5129 7.57506 13.6843 7.48637C13.8557 7.39768 14.0461 7.35209 14.2391 7.35355C14.432 7.35501 14.6217 7.40348 14.7918 7.49476C14.9618 7.58603 15.107 7.71737 15.2148 7.8774L18.0055 12.0782C18.1134 12.2436 18.2608 12.3794 18.4345 12.4735C18.6081 12.5675 18.8025 12.6168 19 12.6168C19.1975 12.6168 19.3919 12.5675 19.5655 12.4735C19.7392 12.3794 19.8866 12.2436 19.9945 12.0782L22.7852 7.8774C22.893 7.71737 23.0382 7.58603 23.2082 7.49476C23.3783 7.40348 23.568 7.35501 23.7609 7.35355C23.9539 7.35209 24.1443 7.39768 24.3157 7.48637C24.4871 7.57506 24.6343 7.70418 24.7445 7.86256L32.0625 18.3126" stroke="#6D737A" stroke-width="1.5" stroke-linecap="round" stroke-linejoin="round"/>
</g>
</svg>
