<svg width="38" height="39" viewBox="0 0 38 39" fill="none" xmlns="http://www.w3.org/2000/svg">
<path d="M19 23.0625C20.9675 23.0625 22.5625 21.4675 22.5625 19.5C22.5625 17.5325 20.9675 15.9375 19 15.9375C17.0325 15.9375 15.4375 17.5325 15.4375 19.5C15.4375 21.4675 17.0325 23.0625 19 23.0625Z" stroke="#6D737A" stroke-width="1.5" stroke-linecap="round" stroke-linejoin="round"/>
<path d="M14.25 12.375C16.2175 12.375 17.8125 10.78 17.8125 8.8125C17.8125 6.84499 16.2175 5.25 14.25 5.25C12.2825 5.25 10.6875 6.84499 10.6875 8.8125C10.6875 10.78 12.2825 12.375 14.25 12.375Z" stroke="#6D737A" stroke-width="1.5" stroke-linecap="round" stroke-linejoin="round"/>
<path d="M29.6875 19.5C31.655 19.5 33.25 17.905 33.25 15.9375C33.25 13.97 31.655 12.375 29.6875 12.375C27.72 12.375 26.125 13.97 26.125 15.9375C26.125 17.905 27.72 19.5 29.6875 19.5Z" stroke="#6D737A" stroke-width="1.5" stroke-linecap="round" stroke-linejoin="round"/>
<path d="M29.6875 31.375C31.655 31.375 33.25 29.78 33.25 27.8125C33.25 25.845 31.655 24.25 29.6875 24.25C27.72 24.25 26.125 25.845 26.125 27.8125C26.125 29.78 27.72 31.375 29.6875 31.375Z" stroke="#6D737A" stroke-width="1.5" stroke-linecap="round" stroke-linejoin="round"/>
<path d="M8.3125 32.5625C10.28 32.5625 11.875 30.9675 11.875 29C11.875 27.0325 10.28 25.4375 8.3125 25.4375C6.34499 25.4375 4.75 27.0325 4.75 29C4.75 30.9675 6.34499 32.5625 8.3125 32.5625Z" stroke="#6D737A" stroke-width="1.5" stroke-linecap="round" stroke-linejoin="round"/>
<path d="M17.5598 16.2492L15.6895 12.0632" stroke="#6D737A" stroke-width="1.5" stroke-linecap="round" stroke-linejoin="round"/>
<path d="M26.3035 17.0657L22.3848 18.3719" stroke="#6D737A" stroke-width="1.5" stroke-linecap="round" stroke-linejoin="round"/>
<path d="M26.8822 25.6306L21.8057 21.6821" stroke="#6D737A" stroke-width="1.5" stroke-linecap="round" stroke-linejoin="round"/>
<path d="M16.3432 21.8601L10.9697 26.6398" stroke="#6D737A" stroke-width="1.5" stroke-linecap="round" stroke-linejoin="round"/>
</svg>
