<svg width="38" height="39" viewBox="0 0 38 39" fill="none" xmlns="http://www.w3.org/2000/svg">
<g id="Heartbeat">
<path id="Vector" d="M4.75 19.5H10.6875L13.0625 15.9375L17.8125 23.0625L20.1875 19.5H23.75" stroke="#6D737A" stroke-width="1.5" stroke-linecap="round" stroke-linejoin="round"/>
<path id="Vector_2" d="M4.17109 14.75C4.15625 14.557 4.15625 14.3492 4.15625 14.1563C4.15625 12.3719 4.77448 10.6426 5.90577 9.26266C7.03705 7.88272 8.61149 6.93735 10.3612 6.5874C12.111 6.23746 13.9279 6.50455 15.5029 7.34323C17.0779 8.18192 18.3137 9.54039 19 11.1875V11.1875C19.6863 9.54039 20.9221 8.18192 22.4971 7.34323C24.0721 6.50455 25.889 6.23746 27.6388 6.5874C29.3885 6.93735 30.963 7.88272 32.0942 9.26266C33.2255 10.6426 33.8438 12.3719 33.8438 14.1563C33.8438 24.25 19 32.5625 19 32.5625C19 32.5625 13.0773 29.2375 8.71328 24.25" stroke="#6D737A" stroke-width="1.5" stroke-linecap="round" stroke-linejoin="round"/>
</g>
</svg>
