<svg width="38" height="39" viewBox="0 0 38 39" fill="none" xmlns="http://www.w3.org/2000/svg">
<g id="Lightbulb">
<path id="Vector" d="M13.0625 34.9375H24.9375" stroke="#6D737A" stroke-width="1.5" stroke-linecap="round" stroke-linejoin="round"/>
<path id="Vector_2" d="M11.6822 25.289C10.2684 24.1897 9.12342 22.7831 8.33388 21.1758C7.54435 19.5684 7.13099 17.8024 7.12513 16.0116C7.09544 9.56945 12.2759 4.21086 18.7181 4.06242C21.2113 4.00331 23.6599 4.73069 25.7166 6.14138C27.7732 7.55208 29.3335 9.57448 30.1761 11.9218C31.0188 14.269 31.101 16.8221 30.4112 19.2187C29.7214 21.6154 28.2945 23.734 26.3329 25.2741C25.8996 25.6091 25.5486 26.0387 25.3068 26.5301C25.065 27.0214 24.9387 27.5616 24.9376 28.1093V28.9999C24.9376 29.3149 24.8125 29.6169 24.5898 29.8396C24.3671 30.0623 24.0651 30.1874 23.7501 30.1874H14.2501C13.9352 30.1874 13.6331 30.0623 13.4104 29.8396C13.1877 29.6169 13.0626 29.3149 13.0626 28.9999V28.1093C13.0589 27.5657 12.9329 27.03 12.6939 26.5418C12.4549 26.0535 12.1091 25.6254 11.6822 25.289V25.289Z" stroke="#6D737A" stroke-width="1.5" stroke-linecap="round" stroke-linejoin="round"/>
<path id="Vector_3" d="M20.2021 8.93115C21.6535 9.17719 22.9928 9.86765 24.035 10.9072C25.0773 11.9468 25.7712 13.2843 26.0209 14.7351" stroke="#6D737A" stroke-width="1.5" stroke-linecap="round" stroke-linejoin="round"/>
</g>
</svg>
