<svg width="153" height="38" viewBox="0 0 153 38" fill="none" xmlns="http://www.w3.org/2000/svg">
<path d="M24.2572 26.92H26.2732C26.2732 27.432 26.2572 28.056 26.2252 28.792C26.1932 29.496 26.1292 30.264 26.0332 31.096C25.9372 31.896 25.8252 32.696 25.6972 33.496C25.5692 34.296 25.4252 35.016 25.2652 35.656C24.5932 36.008 23.8412 36.312 23.0092 36.568C22.2092 36.792 21.3932 36.984 20.5612 37.144C19.7292 37.304 18.9292 37.416 18.1612 37.48C17.3932 37.544 16.7212 37.576 16.1452 37.576C13.2012 37.576 10.7212 37.176 8.70519 36.376C6.68919 35.576 5.04119 34.536 3.76119 33.256C2.48119 31.976 1.55319 30.536 0.977186 28.936C0.433186 27.336 0.161186 25.72 0.161186 24.088C0.161186 20.92 0.625186 18.04 1.55319 15.448C2.48119 12.824 3.82519 10.584 5.58519 8.728C7.37719 6.84 9.55319 5.384 12.1132 4.36C14.7052 3.336 17.6332 2.824 20.8972 2.824C23.0092 2.824 24.8972 2.984 26.5612 3.304C28.2572 3.592 29.6332 3.992 30.6892 4.504C30.5932 5.016 30.4332 5.672 30.2092 6.472C29.9852 7.272 29.7292 8.12 29.4412 9.016C29.1532 9.88 28.8492 10.744 28.5292 11.608C28.2092 12.44 27.9052 13.144 27.6172 13.72H25.6012L24.4972 6.472C24.2092 6.312 23.7292 6.184 23.0572 6.088C22.3852 5.992 21.7132 5.944 21.0412 5.944C19.1852 5.944 17.4732 6.392 15.9052 7.288C14.3692 8.184 13.0252 9.448 11.8732 11.08C10.7532 12.712 9.87319 14.696 9.23319 17.032C8.62519 19.336 8.32119 21.912 8.32119 24.76C8.32119 26.552 8.57719 28.072 9.08919 29.32C9.60119 30.536 10.2572 31.528 11.0572 32.296C11.8892 33.064 12.7852 33.624 13.7452 33.976C14.7372 34.296 15.6972 34.456 16.6252 34.456C17.5532 34.456 18.3532 34.376 19.0252 34.216C19.6972 34.024 20.1932 33.832 20.5132 33.64L24.2572 26.92ZM36.0817 4.888L32.8177 4.264V2.632C33.2657 2.44 33.8737 2.248 34.6417 2.056C35.4097 1.864 36.2417 1.688 37.1377 1.528C38.0337 1.336 38.9457 1.192 39.8737 1.096C40.8337 0.967999 41.7137 0.903998 42.5137 0.903998L43.4737 1.432L37.1857 33.688H40.5937V35.32C40.2737 35.576 39.8417 35.832 39.2977 36.088C38.7537 36.344 38.1457 36.568 37.4737 36.76C36.8337 36.952 36.1617 37.112 35.4577 37.24C34.7537 37.368 34.0817 37.432 33.4417 37.432C32.3537 37.432 31.5537 37.208 31.0417 36.76C30.5617 36.28 30.3217 35.768 30.3217 35.224C30.3217 34.584 30.3697 33.96 30.4657 33.352C30.5617 32.744 30.6897 32.072 30.8497 31.336L36.0817 4.888ZM53.4974 33.736C54.1054 33.736 54.7294 33.464 55.3694 32.92C56.0414 32.376 56.6654 31.704 57.2414 30.904C57.8494 30.072 58.3934 29.176 58.8734 28.216C59.3854 27.224 59.8174 26.312 60.1694 25.48L61.9454 15.976C61.5614 15.72 61.1934 15.544 60.8414 15.448C60.5214 15.32 60.0894 15.256 59.5454 15.256C58.2654 15.256 57.1134 15.688 56.0894 16.552C55.0654 17.384 54.2014 18.488 53.4974 19.864C52.7934 21.208 52.2494 22.728 51.8654 24.424C51.5134 26.12 51.3374 27.816 51.3374 29.512C51.3374 30.984 51.5134 32.056 51.8654 32.728C52.2174 33.4 52.7614 33.736 53.4974 33.736ZM59.4494 29.368C59.0334 30.392 58.5054 31.4 57.8654 32.392C57.2574 33.352 56.5534 34.216 55.7534 34.984C54.9534 35.752 54.0734 36.376 53.1134 36.856C52.1534 37.336 51.1134 37.576 49.9934 37.576C48.3294 37.576 47.0014 36.968 46.0094 35.752C45.0174 34.536 44.5214 32.728 44.5214 30.328C44.5214 27.832 44.8574 25.512 45.5294 23.368C46.2334 21.192 47.2094 19.304 48.4574 17.704C49.7374 16.072 51.2734 14.808 53.0654 13.912C54.8574 12.984 56.8574 12.52 59.0654 12.52C59.8974 12.52 60.6014 12.616 61.1774 12.808C61.7854 13 62.4254 13.24 63.0974 13.528C63.9294 13.208 64.8254 12.968 65.7854 12.808C66.7454 12.648 67.8974 12.568 69.2414 12.568L65.2094 33.688H68.5694V35.32C68.2494 35.576 67.8174 35.832 67.2734 36.088C66.7614 36.344 66.1854 36.568 65.5454 36.76C64.9374 36.952 64.2974 37.112 63.6254 37.24C62.9854 37.368 62.3774 37.432 61.8014 37.432C60.6814 37.432 59.8814 37.192 59.4014 36.712C58.9214 36.232 58.6814 35.736 58.6814 35.224C58.6814 34.648 58.7614 33.896 58.9214 32.968C59.0814 32.008 59.3214 30.808 59.6414 29.368H59.4494ZM81.3123 31.72C81.3123 31.016 81.1203 30.392 80.7363 29.848C80.3523 29.272 79.8723 28.712 79.2963 28.168C78.7203 27.624 78.0803 27.096 77.3763 26.584C76.7043 26.04 76.0803 25.432 75.5043 24.76C74.9283 24.088 74.4483 23.352 74.0643 22.552C73.6803 21.72 73.4883 20.76 73.4883 19.672C73.4883 17.24 74.3523 15.432 76.0803 14.248C77.8403 13.032 80.2243 12.424 83.2323 12.424C83.7443 12.424 84.3043 12.456 84.9123 12.52C85.5523 12.552 86.1923 12.632 86.8323 12.76C87.4723 12.888 88.0803 13.048 88.6563 13.24C89.2643 13.4 89.8083 13.624 90.2883 13.912C90.3203 14.264 90.2883 14.728 90.1923 15.304C90.1283 15.848 89.9843 16.408 89.7603 16.984C89.5683 17.528 89.2963 18.04 88.9443 18.52C88.6243 18.968 88.2243 19.272 87.7443 19.432L83.9043 15.16C82.8803 15.16 82.0163 15.368 81.3123 15.784C80.6403 16.2 80.3043 16.936 80.3043 17.992C80.3043 18.696 80.4963 19.336 80.8803 19.912C81.2963 20.488 81.7923 21.048 82.3683 21.592C82.9443 22.104 83.5843 22.632 84.2883 23.176C84.9923 23.72 85.6323 24.328 86.2083 25C86.7843 25.64 87.2643 26.376 87.6483 27.208C88.0643 28.04 88.2723 29 88.2723 30.088C88.2723 31.304 88.0003 32.376 87.4563 33.304C86.9123 34.232 86.1603 35.016 85.2003 35.656C84.2723 36.296 83.1523 36.776 81.8403 37.096C80.5283 37.416 79.1043 37.576 77.5683 37.576C75.9363 37.576 74.4643 37.384 73.1523 37C71.8723 36.648 70.9123 36.248 70.2723 35.8C70.2403 34.776 70.4163 33.768 70.8003 32.776C71.2163 31.784 71.8083 31.016 72.5763 30.472L77.2323 34.84C78.2883 34.84 79.2323 34.584 80.0643 34.072C80.8963 33.56 81.3123 32.776 81.3123 31.72ZM102.127 31.72C102.127 31.016 101.935 30.392 101.551 29.848C101.167 29.272 100.687 28.712 100.111 28.168C99.5351 27.624 98.8951 27.096 98.1911 26.584C97.5191 26.04 96.8951 25.432 96.3191 24.76C95.7431 24.088 95.2631 23.352 94.8791 22.552C94.4951 21.72 94.3031 20.76 94.3031 19.672C94.3031 17.24 95.1671 15.432 96.8951 14.248C98.6551 13.032 101.039 12.424 104.047 12.424C104.559 12.424 105.119 12.456 105.727 12.52C106.367 12.552 107.007 12.632 107.647 12.76C108.287 12.888 108.895 13.048 109.471 13.24C110.079 13.4 110.623 13.624 111.103 13.912C111.135 14.264 111.103 14.728 111.007 15.304C110.943 15.848 110.799 16.408 110.575 16.984C110.383 17.528 110.111 18.04 109.759 18.52C109.439 18.968 109.039 19.272 108.559 19.432L104.719 15.16C103.695 15.16 102.831 15.368 102.127 15.784C101.455 16.2 101.119 16.936 101.119 17.992C101.119 18.696 101.311 19.336 101.695 19.912C102.111 20.488 102.607 21.048 103.183 21.592C103.759 22.104 104.399 22.632 105.103 23.176C105.807 23.72 106.447 24.328 107.023 25C107.599 25.64 108.079 26.376 108.463 27.208C108.879 28.04 109.087 29 109.087 30.088C109.087 31.304 108.815 32.376 108.271 33.304C107.727 34.232 106.975 35.016 106.015 35.656C105.087 36.296 103.967 36.776 102.655 37.096C101.343 37.416 99.9191 37.576 98.3831 37.576C96.7511 37.576 95.2791 37.384 93.9671 37C92.6871 36.648 91.7271 36.248 91.0871 35.8C91.0551 34.776 91.2311 33.768 91.6151 32.776C92.0311 31.784 92.6231 31.016 93.3911 30.472L98.0471 34.84C99.1031 34.84 100.047 34.584 100.879 34.072C101.711 33.56 102.127 32.776 102.127 31.72ZM114.782 15.784V14.152C115.262 13.96 115.902 13.768 116.702 13.576C117.502 13.352 118.35 13.16 119.246 13C120.142 12.84 121.022 12.712 121.886 12.616C122.782 12.488 123.566 12.424 124.238 12.424L125.102 13L120.782 33.688H124.142V35.32C123.726 35.608 123.23 35.88 122.654 36.136C122.11 36.392 121.518 36.616 120.878 36.808C120.27 37 119.646 37.144 119.006 37.24C118.366 37.368 117.758 37.432 117.182 37.432C115.966 37.432 115.118 37.208 114.638 36.76C114.19 36.28 113.966 35.768 113.966 35.224C113.966 34.584 114.014 33.96 114.11 33.352C114.206 32.744 114.334 32.072 114.494 31.336L117.758 16.456L114.782 15.784ZM118.766 4.984C118.766 3.896 119.134 3.048 119.87 2.44C120.606 1.832 121.534 1.528 122.654 1.528C123.87 1.528 124.83 1.832 125.534 2.44C126.27 3.048 126.638 3.896 126.638 4.984C126.638 6.008 126.27 6.824 125.534 7.432C124.83 8.04 123.87 8.344 122.654 8.344C121.534 8.344 120.606 8.04 119.87 7.432C119.134 6.824 118.766 6.008 118.766 4.984ZM136.944 33.736C137.552 33.736 138.176 33.464 138.816 32.92C139.488 32.376 140.112 31.704 140.688 30.904C141.296 30.072 141.84 29.176 142.32 28.216C142.832 27.224 143.264 26.312 143.616 25.48L145.392 15.976C145.008 15.72 144.64 15.544 144.288 15.448C143.968 15.32 143.536 15.256 142.992 15.256C141.712 15.256 140.56 15.688 139.536 16.552C138.512 17.384 137.648 18.488 136.944 19.864C136.24 21.208 135.696 22.728 135.312 24.424C134.96 26.12 134.784 27.816 134.784 29.512C134.784 30.984 134.96 32.056 135.312 32.728C135.664 33.4 136.208 33.736 136.944 33.736ZM142.896 29.368C142.48 30.392 141.952 31.4 141.312 32.392C140.704 33.352 140 34.216 139.2 34.984C138.4 35.752 137.52 36.376 136.56 36.856C135.6 37.336 134.56 37.576 133.44 37.576C131.776 37.576 130.448 36.968 129.456 35.752C128.464 34.536 127.968 32.728 127.968 30.328C127.968 27.832 128.304 25.512 128.976 23.368C129.68 21.192 130.656 19.304 131.904 17.704C133.184 16.072 134.72 14.808 136.512 13.912C138.304 12.984 140.304 12.52 142.512 12.52C143.344 12.52 144.048 12.616 144.624 12.808C145.232 13 145.872 13.24 146.544 13.528C147.376 13.208 148.272 12.968 149.232 12.808C150.192 12.648 151.344 12.568 152.688 12.568L148.656 33.688H152.016V35.32C151.696 35.576 151.264 35.832 150.72 36.088C150.208 36.344 149.632 36.568 148.992 36.76C148.384 36.952 147.744 37.112 147.072 37.24C146.432 37.368 145.824 37.432 145.248 37.432C144.128 37.432 143.328 37.192 142.848 36.712C142.368 36.232 142.128 35.736 142.128 35.224C142.128 34.648 142.208 33.896 142.368 32.968C142.528 32.008 142.768 30.808 143.088 29.368H142.896Z" fill="url(#paint0_linear_137_976)"/>
<defs>
<linearGradient id="paint0_linear_137_976" x1="75.5" y1="-1" x2="75.5" y2="39" gradientUnits="userSpaceOnUse">
<stop stop-color="#FFC27A"/>
<stop offset="1" stop-color="#FFA337"/>
</linearGradient>
</defs>
</svg>
