<svg width="38" height="39" viewBox="0 0 38 39" fill="none" xmlns="http://www.w3.org/2000/svg">
<g id="MicrophoneStage">
<path id="Vector" d="M24.9375 23.0625C30.1842 23.0625 34.4375 18.8092 34.4375 13.5625C34.4375 8.31579 30.1842 4.0625 24.9375 4.0625C19.6908 4.0625 15.4375 8.31579 15.4375 13.5625C15.4375 18.8092 19.6908 23.0625 24.9375 23.0625Z" stroke="#6D737A" stroke-width="1.5" stroke-linecap="round" stroke-linejoin="round"/>
<path id="Vector_2" d="M31.6613 20.2868L18.2129 6.83838" stroke="#6D737A" stroke-width="1.5" stroke-linecap="round" stroke-linejoin="round"/>
<path id="Vector_3" d="M14.8438 23.6562L13.0625 25.4375" stroke="#6D737A" stroke-width="1.5" stroke-linecap="round" stroke-linejoin="round"/>
<path id="Vector_4" d="M15.5558 15.032L4.17063 30.5585C3.99948 30.7864 3.91715 31.0687 3.939 31.3528C3.96086 31.6369 4.08541 31.9033 4.28938 32.1023L6.39719 34.2101C6.59615 34.4141 6.86258 34.5386 7.14668 34.5605C7.43078 34.5823 7.71312 34.5 7.94094 34.3289L23.4675 22.9437" stroke="#6D737A" stroke-width="1.5" stroke-linecap="round" stroke-linejoin="round"/>
</g>
</svg>
