<svg width="38" height="39" viewBox="0 0 38 39" fill="none" xmlns="http://www.w3.org/2000/svg">
<g id="PenNib">
<path id="Vector" d="M17.2188 24.25C18.8583 24.25 20.1875 22.9208 20.1875 21.2812C20.1875 19.6417 18.8583 18.3125 17.2188 18.3125C15.5792 18.3125 14.25 19.6417 14.25 21.2812C14.25 22.9208 15.5792 24.25 17.2188 24.25Z" stroke="#6D737A" stroke-width="1.5" stroke-linecap="round" stroke-linejoin="round"/>
<path id="Vector_2" d="M4.75 33.75L15.1258 23.3743" stroke="#6D737A" stroke-width="1.5" stroke-linecap="round" stroke-linejoin="round"/>
<path id="Vector_3" d="M4.75 33.75L25.457 30.3063C25.6614 30.2714 25.8529 30.1829 26.0119 30.05C26.171 29.917 26.292 29.7442 26.3625 29.5492L29.6875 20.6875L17.8125 8.8125L8.95078 12.1375C8.7555 12.2119 8.58298 12.3359 8.45023 12.4973C8.31748 12.6587 8.22908 12.8519 8.19375 13.0578L4.75 33.75Z" stroke="#6D737A" stroke-width="1.5" stroke-linecap="round" stroke-linejoin="round"/>
<path id="Vector_4" d="M29.6875 20.6876L33.5914 16.7837C33.7036 16.6732 33.7927 16.5415 33.8535 16.3962C33.9143 16.251 33.9457 16.0951 33.9457 15.9376C33.9457 15.7801 33.9143 15.6242 33.8535 15.479C33.7927 15.3337 33.7036 15.202 33.5914 15.0915L23.4086 4.90871C23.2981 4.79651 23.1664 4.7074 23.0211 4.64658C22.8759 4.58576 22.72 4.55444 22.5625 4.55444C22.405 4.55444 22.2491 4.58576 22.1039 4.64658C21.9586 4.7074 21.8269 4.79651 21.7164 4.90871L17.8125 8.81261" stroke="#6D737A" stroke-width="1.5" stroke-linecap="round" stroke-linejoin="round"/>
</g>
</svg>
