<svg width="44" height="34" viewBox="0 0 44 34" fill="none" xmlns="http://www.w3.org/2000/svg">
<g id="Vector">
<path d="M12.2222 0.955078H7.33333C3.28957 0.955078 0 4.05744 0 7.87107V12.4817C0 16.2954 3.28957 19.3977 7.33333 19.3977H12.2222C13.0071 19.3977 13.7492 19.2503 14.4587 19.0338C13.4731 24.4635 8.48075 28.6191 2.44444 28.6191C1.09332 28.6191 0 29.6502 0 30.9244C0 32.1986 1.09332 33.2297 2.44444 33.2297C11.8785 33.2297 19.5556 25.9896 19.5556 17.0924V7.87107C19.5556 4.05744 16.266 0.955078 12.2222 0.955078ZM36.6667 0.955078H31.7778C27.734 0.955078 24.4444 4.05744 24.4444 7.87107V12.4817C24.4444 16.2954 27.734 19.3977 31.7778 19.3977H36.6667C37.4515 19.3977 38.1936 19.2503 38.9032 19.0338C37.9176 24.4635 32.9252 28.6191 26.8889 28.6191C25.5378 28.6191 24.4444 29.6502 24.4444 30.9244C24.4444 32.1986 25.5378 33.2297 26.8889 33.2297C36.323 33.2297 44 25.9896 44 17.0924V7.87107C44 4.05744 40.7104 0.955078 36.6667 0.955078Z" fill="#FFC27A"/>
<path d="M12.2222 0.955078H7.33333C3.28957 0.955078 0 4.05744 0 7.87107V12.4817C0 16.2954 3.28957 19.3977 7.33333 19.3977H12.2222C13.0071 19.3977 13.7492 19.2503 14.4587 19.0338C13.4731 24.4635 8.48075 28.6191 2.44444 28.6191C1.09332 28.6191 0 29.6502 0 30.9244C0 32.1986 1.09332 33.2297 2.44444 33.2297C11.8785 33.2297 19.5556 25.9896 19.5556 17.0924V7.87107C19.5556 4.05744 16.266 0.955078 12.2222 0.955078ZM36.6667 0.955078H31.7778C27.734 0.955078 24.4444 4.05744 24.4444 7.87107V12.4817C24.4444 16.2954 27.734 19.3977 31.7778 19.3977H36.6667C37.4515 19.3977 38.1936 19.2503 38.9032 19.0338C37.9176 24.4635 32.9252 28.6191 26.8889 28.6191C25.5378 28.6191 24.4444 29.6502 24.4444 30.9244C24.4444 32.1986 25.5378 33.2297 26.8889 33.2297C36.323 33.2297 44 25.9896 44 17.0924V7.87107C44 4.05744 40.7104 0.955078 36.6667 0.955078Z" fill="url(#paint0_linear_5_6023)"/>
<path d="M14.9507 19.1231L15.0972 18.3162L14.3128 18.5556C13.6354 18.7623 12.9439 18.8977 12.2222 18.8977H7.33333C3.53771 18.8977 0.5 15.992 0.5 12.4817V7.87107C0.5 4.36078 3.53771 1.45508 7.33333 1.45508H12.2222C16.0178 1.45508 19.0556 4.36078 19.0556 7.87107V17.0924C19.0556 25.6863 11.6304 32.7297 2.44444 32.7297C1.34145 32.7297 0.5 31.8953 0.5 30.9244C0.5 29.9535 1.34146 29.1191 2.44444 29.1191C8.7084 29.1191 13.9195 24.8041 14.9507 19.1231ZM39.3951 19.1231L39.5416 18.3162L38.7572 18.5556C38.0798 18.7623 37.3884 18.8977 36.6667 18.8977H31.7778C27.9822 18.8977 24.9444 15.992 24.9444 12.4817V7.87107C24.9444 4.36078 27.9822 1.45508 31.7778 1.45508H36.6667C40.4623 1.45508 43.5 4.36078 43.5 7.87107V17.0924C43.5 25.6863 36.0748 32.7297 26.8889 32.7297C25.7859 32.7297 24.9444 31.8953 24.9444 30.9244C24.9444 29.9535 25.7859 29.1191 26.8889 29.1191C33.1528 29.1191 38.3639 24.8041 39.3951 19.1231Z" stroke="black" stroke-opacity="0.1"/>
</g>
<defs>
<linearGradient id="paint0_linear_5_6023" x1="22" y1="0.955078" x2="22" y2="33.2297" gradientUnits="userSpaceOnUse">
<stop stop-color="#FFC27A"/>
<stop offset="1" stop-color="#FFA337"/>
</linearGradient>
</defs>
</svg>
