<svg xmlns="http://www.w3.org/2000/svg" width="360" height="405" viewBox="0 0 360 405" fill="none"><path fill-rule="evenodd" clip-rule="evenodd" d="M165.478 13.9678C167.918 14.0177 170.281 14.8262 172.24 16.2809C155.336 24.11 137.276 43.9496 129.625 83.4509L97.8635 93.3262C106.76 63.1664 127.667 13.9678 165.478 13.9678V13.9678ZM181.136 28.6473C185.173 40.0597 186.985 52.1397 186.474 64.234V66.4582L145.817 78.5577C153.646 48.5759 168.325 34.0743 181.136 28.6473ZM220.015 55.3373L200.353 62.2768V57.5615C200.561 46.88 198.998 36.2377 195.727 26.0673C207.293 27.5797 215.033 40.6578 220.015 55.7822V55.3373ZM314.676 78.7356C314.524 77.8733 314.094 77.0844 313.451 76.4899C312.808 75.8953 311.988 75.5279 311.117 75.4438L278.199 73.0417L254 49.1986C252.698 48.3512 251.219 47.8142 249.676 47.6291C248.134 47.444 246.569 47.6157 245.104 48.131L232.915 51.8676C225.62 31.0494 212.72 12.0105 190.122 12.0105H188.254C185.87 8.51043 182.711 5.60641 179.024 3.52358C175.337 1.44075 171.219 0.235068 166.991 0C114.233 0 88.9668 65.2127 81.2267 98.3083L44.4834 109.607C33.0956 113.166 32.7398 113.522 31.2273 124.198C29.8928 132.294 0 361.116 0 361.116L233.004 404.354L359.248 377.664C359.248 377.664 314.765 81.1377 314.765 79.0915L314.676 78.7356Z" fill="#8CB848"></path><path fill-rule="evenodd" clip-rule="evenodd" d="M311.386 75.4442L278.468 73.0421L254.002 49.199C253.068 48.3433 251.882 47.8128 250.621 47.6865L232.828 404.354L359.072 377.664C359.072 377.664 314.589 81.138 314.589 79.0918C314.437 78.2295 314.007 77.4406 313.364 76.8461C312.721 76.2515 311.901 75.8841 311.03 75.8" fill="#5A873D"></path><path fill-rule="evenodd" clip-rule="evenodd" d="M190.122 144.482L174.553 190.3C165.088 185.71 154.733 183.25 144.215 183.094C119.749 183.094 118.504 198.307 118.504 202.222C118.504 223.129 173.574 231.136 173.574 280.157C173.574 318.768 148.841 343.59 115.568 343.59C104.327 343.899 93.1439 341.868 82.7294 337.625C72.3149 333.383 62.8959 327.022 55.0703 318.946L65.8353 283.893C65.8353 283.893 86.8315 301.687 104.625 301.687C106.736 301.783 108.845 301.449 110.823 300.704C112.8 299.96 114.606 298.82 116.129 297.355C117.653 295.89 118.862 294.13 119.683 292.183C120.504 290.236 120.92 288.142 120.906 286.028C120.906 258.716 75.6216 257.559 75.6216 212.631C75.6216 174.909 103.023 138.343 158.361 138.343C169.28 137.787 180.172 139.861 190.122 144.393" fill="white"></path></svg>