<svg width="38" height="39" viewBox="0 0 38 39" fill="none" xmlns="http://www.w3.org/2000/svg">
<g id="SunHorizon">
<path id="Vector" d="M13.7748 9.25781L12.6318 6.51172" stroke="#6D737A" stroke-width="1.5" stroke-linecap="round" stroke-linejoin="round"/>
<path id="Vector_2" d="M6.38281 16.6501L3.63672 15.5071" stroke="#6D737A" stroke-width="1.5" stroke-linecap="round" stroke-linejoin="round"/>
<path id="Vector_3" d="M31.6172 16.6501L34.3633 15.5071" stroke="#6D737A" stroke-width="1.5" stroke-linecap="round" stroke-linejoin="round"/>
<path id="Vector_4" d="M24.2246 9.25781L25.3676 6.51172" stroke="#6D737A" stroke-width="1.5" stroke-linecap="round" stroke-linejoin="round"/>
<path id="Vector_5" d="M35.625 24.25H2.375" stroke="#6D737A" stroke-width="1.5" stroke-linecap="round" stroke-linejoin="round"/>
<path id="Vector_6" d="M30.875 30.1875H7.125" stroke="#6D737A" stroke-width="1.5" stroke-linecap="round" stroke-linejoin="round"/>
<path id="Vector_7" d="M10.4203 24.25C10.0518 22.9268 9.99429 21.5364 10.2523 20.1873C10.5103 18.8383 11.0769 17.5672 11.9076 16.4734C12.7384 15.3796 13.8109 14.4928 15.0412 13.8823C16.2716 13.2718 17.6265 12.9541 19 12.9541C20.3735 12.9541 21.7284 13.2718 22.9588 13.8823C24.1891 14.4928 25.2616 15.3796 26.0924 16.4734C26.9232 17.5672 27.4897 18.8383 27.7477 20.1873C28.0057 21.5364 27.9482 22.9268 27.5797 24.25" stroke="#6D737A" stroke-width="1.5" stroke-linecap="round" stroke-linejoin="round"/>
</g>
</svg>
