<svg width="64" height="65" viewBox="0 0 64 65" fill="none" xmlns="http://www.w3.org/2000/svg">
<rect y="0.987549" width="64" height="64" rx="8" fill="#F0F7FF"/>
<path d="M32 41.925C35.797 41.925 38.875 38.847 38.875 35.05C38.875 31.2531 35.797 28.175 32 28.175C28.203 28.175 25.125 31.2531 25.125 35.05C25.125 38.847 28.203 41.925 32 41.925Z" stroke="#0075FD" stroke-width="1.5" stroke-linecap="round" stroke-linejoin="round"/>
<path d="M43.6875 30.9251C45.2889 30.9224 46.8688 31.294 48.3012 32.0101C49.7336 32.7263 50.9788 33.7673 51.9375 35.0501" stroke="#0075FD" stroke-width="1.5" stroke-linecap="round" stroke-linejoin="round"/>
<path d="M12.0625 35.0501C13.0212 33.7673 14.2664 32.7263 15.6988 32.0101C17.1312 31.294 18.7111 30.9224 20.3125 30.9251" stroke="#0075FD" stroke-width="1.5" stroke-linecap="round" stroke-linejoin="round"/>
<path d="M22.0996 48.1125C23.0051 46.2582 24.4132 44.6954 26.1635 43.6022C27.9138 42.509 29.936 41.9294 31.9996 41.9294C34.0633 41.9294 36.0854 42.509 37.8357 43.6022C39.586 44.6954 40.9941 46.2582 41.8996 48.1125" stroke="#0075FD" stroke-width="1.5" stroke-linecap="round" stroke-linejoin="round"/>
<path d="M20.3122 30.925C19.2683 30.9261 18.2457 30.6301 17.3638 30.0715C16.4819 29.513 15.7772 28.715 15.3319 27.7708C14.8867 26.8266 14.7194 25.7752 14.8495 24.7394C14.9797 23.7037 15.4019 22.7263 16.0668 21.9216C16.7318 21.1169 17.612 20.518 18.6047 20.195C19.5973 19.872 20.6614 19.8381 21.6726 20.0974C22.6838 20.3566 23.6003 20.8983 24.3151 21.6591C25.0299 22.4199 25.5134 23.3684 25.7091 24.3938" stroke="#0075FD" stroke-width="1.5" stroke-linecap="round" stroke-linejoin="round"/>
<path d="M38.291 24.3938C38.4867 23.3684 38.9702 22.4199 39.685 21.6591C40.3998 20.8983 41.3163 20.3566 42.3275 20.0974C43.3387 19.8381 44.4028 19.872 45.3954 20.195C46.3881 20.518 47.2683 21.1169 47.9333 21.9216C48.5982 22.7263 49.0204 23.7037 49.1506 24.7394C49.2807 25.7752 49.1134 26.8266 48.6682 27.7708C48.2229 28.715 47.5182 29.513 46.6363 30.0715C45.7544 30.6301 44.7318 30.9261 43.6879 30.925" stroke="#0075FD" stroke-width="1.5" stroke-linecap="round" stroke-linejoin="round"/>
</svg>
