<svg width="64" height="65" viewBox="0 0 64 65" fill="none" xmlns="http://www.w3.org/2000/svg">
<rect y="0.251953" width="64" height="64" rx="8" fill="#FFEEE7"/>
<path d="M14.125 20.5645H36.125C37.5837 20.5645 38.9826 21.1439 40.0141 22.1754C41.0455 23.2068 41.625 24.6058 41.625 26.0645V42.5645C41.625 42.9291 41.4801 43.2789 41.2223 43.5367C40.9644 43.7946 40.6147 43.9395 40.25 43.9395H18.25C16.7913 43.9395 15.3924 43.36 14.3609 42.3285C13.3295 41.2971 12.75 39.8981 12.75 38.4395V21.9395C12.75 21.5748 12.8949 21.225 13.1527 20.9672C13.4106 20.7093 13.7603 20.5645 14.125 20.5645V20.5645Z" stroke="#F16F35" stroke-width="1.5" stroke-linecap="round" stroke-linejoin="round"/>
<path d="M41.625 29.502L51.25 24.002V40.502L41.625 35.002" stroke="#F16F35" stroke-width="1.5" stroke-linecap="round" stroke-linejoin="round"/>
</svg>
